<svg id="Layer_1" data-name="Layer 1" xmlns="http://www.w3.org/2000/svg" viewBox="0 0 1728 377.06"><defs><style>.cls-1{fill:#ed1c24;}.cls-2{fill:#006838;}.cls-3{fill:#27292d;stroke:#231f20;stroke-miterlimit:10;stroke-width:0.58px;}</style></defs><path class="cls-1" d="M229.27,232.38q-16.08-31.31-49.33-31.31-15.25.27-33.82,6.09A69.72,69.72,0,0,1,124.78,211q-16.62,0-25.77-9.7a53.12,53.12,0,0,1-12.75-24.11,118.51,118.51,0,0,1-3.6-28.82,124.66,124.66,0,0,1,2.77-28l6.37,4.44-.28,8.59a80.2,80.2,0,0,0,2.08,18.29,31.07,31.07,0,0,0,7.63,14.69q5.53,5.82,16.35,5.82a89.34,89.34,0,0,0,11.08-1.38,100.35,100.35,0,0,1,24.39-3.05q16.63,0,24.39,9.7V97.69Q175.79,91,168.57,91q-6.37,0-14.41,4.3a35.5,35.5,0,0,0-13,11.78,16,16,0,0,1,9.42,6.65,19.56,19.56,0,0,1,3.32,11.09,23.3,23.3,0,0,1-2.63,10.53,22.66,22.66,0,0,1-8.18,8.87,24.91,24.91,0,0,1-13.3,4.16q-10,0-17.74-7.49a25.08,25.08,0,0,1-7.75-18.84q0-7.76,4.7-16.63a89.57,89.57,0,0,1,34.65-33.26Q165.8,60,186.59,60q17.73,0,30.21,9.84t12.47,31.74Z"/><path class="cls-1" d="M482,104.36s.08.15.28.33C482.08,104.44,482,104.34,482,104.36Z"/><path class="cls-1" d="M648.05,163.65a37.24,37.24,0,0,0,5.54-19.12,34.26,34.26,0,0,0-5.54-18.72,39.68,39.68,0,0,0-15.5-14h39.89c-.23-6-.45-12.07-.68-18.09l-136.06.58V94L517.5,94c-7.18-6-14.33-12-21.52-18q-9.14-9.52-18.24-19l-10.1.13q-.22,8.38-.38,16.85c-.13,6.66-.18,13.28-.23,19.88-3.78,0-7.56,0-11.34,0,0-.1,0-.22,0-.32L239.55,94c0,5.92,0,11.87,0,17.79h93.4v4.44l-77.6,22.45v74.83l10-1.11a241.42,241.42,0,0,1,25.5-1.11q47.13,0,81.77,14.69a115,115,0,0,1,11.64,5.83l.55.55V159.22A91.8,91.8,0,0,1,400,157.83q23.28.84,23.28,11.09a9.89,9.89,0,0,1-.83,3.88,16.86,16.86,0,0,0-11.92-5,21.19,21.19,0,0,0-13.3,4.71q-7.23,5.82-8,16.08a19.79,19.79,0,0,0,7.48,15.92,26.07,26.07,0,0,0,17.19,6.25q14.13,0,23.56-13T446.85,172q0-20-18-35.63T384.76,115.7v-3.88h82.6V220.75l51.83,11.64V111.82h65.69q-10.27,4.43-15.24,12.05a28.23,28.23,0,0,0-5,15.67,23.8,23.8,0,0,0,4.83,14.54c3.23,4.36,7.92,7.25,14,8.74a27.28,27.28,0,0,0,5.55.55,20.72,20.72,0,0,0,15.65-6.52q6.22-6.51,6.24-14a14.19,14.19,0,0,0-2.21-7.48h2.21q8.85,0,14.82,4.71t6,10.81a12.64,12.64,0,0,1-1.38,5.55l-3.33-.28a24.35,24.35,0,0,0-13,3.6q-8.31,5-8.31,16.08c0,5.36,1.74,9.55,5.26,12.6A17.06,17.06,0,0,0,622.3,193q7.19,0,11.64-7.48H635c5.75.55,8.59,2.22,8.59,5q0,3.89-6.62,8.16T617.86,203a69.75,69.75,0,0,1-35.2-9.7q-28-16.06-33-70.4l-10,8.31q0,21.06,7.61,47.52t23.43,45.74q15.81,19.28,39.64,21.21h3c11.06,0,20.13-2.87,27.14-8.59a56.56,56.56,0,0,0,15.95-20.38,58.54,58.54,0,0,0,5.67-23.13Q662.19,173.9,648.05,163.65ZM306,189.18a153.42,153.42,0,0,0-32-3.56,73.36,73.36,0,0,1,56.92-40q1.32,26.23,2.67,52.46A151.5,151.5,0,0,0,306,189.18Zm176-84.82s.13.08.28.33C482,104.51,482,104.39,482,104.36Z"/><path class="cls-1" d="M812.4,232.38c-.19-.18-.32-.27-.41-.27s-.14-.09-.14-.28A100.85,100.85,0,0,0,799.93,226q-34.65-14.69-81.76-14.69a238.61,238.61,0,0,0-25.5,1.11l-10,1.11V138.71l77.88-22.45v-4.44H666.89L667,93.73l161.56.89-.37,17.2H812.4Zm-51.83-39.64V151.83a79,79,0,0,0-54.43,34.39,115,115,0,0,1,54.43,6.52Zm-9.7,66.53a23.54,23.54,0,0,1-6.93-1.11,21.65,21.65,0,0,1-11.78-8.45,22.19,22.19,0,0,1-4-12.61,18.18,18.18,0,0,1,2.77-9.57,19.67,19.67,0,0,1,8.31-7.34,31.5,31.5,0,0,1,12.47-3.05q10.26,0,15.39,7.62t5.12,15.11c0,4.61-2,9-6.09,13.16A20.46,20.46,0,0,1,750.87,259.27Z"/><path class="cls-2" d="M1013.8,236.77l-.55-.55c-1.3-1.66-4.26-4.44-8.87-8.31Q985,211.55,967.52,211.55q-8.6.28-13.58,3.33-9.15,4.71-21.49,9.7a67.62,67.62,0,0,1-25.63,5q-32.7,0-46.84-43.79-3.88-12.19-4.16-16.36l2.22-3.88,1.38,3.88a51.57,51.57,0,0,0,11.92,18.3,20.46,20.46,0,0,0,13,5.54q7.2,0,21.89-5.82a74.54,74.54,0,0,1,25.23-5.82,55.88,55.88,0,0,1,27.16,6.65,91.43,91.43,0,0,1,19.67,13.86l3.61,2.22v-.28q-6.39-8.32-13.17-17A31,31,0,0,1,962,167.48V138.94l-50.72,38.8L887.7,149.47l13.3-8.59v-1.94q0-5.55-3.33-8a12.57,12.57,0,0,0-7.76-2.49,16.17,16.17,0,0,0-10,3.6l-28-36,5.27-5A177.93,177.93,0,0,1,871.9,80a122.53,122.53,0,0,1,20.78-11.22,60.56,60.56,0,0,1,24.12-5q26.6,0,45.17,27.71.36-16.87.7-33.75l10.12-.11q9.12,9.5,18.23,19l21.79,18.23h27.86q-.36,9.93-.74,19.86l-26.13.6Zm-92-109.47,29.65-18.85-.55-.83-2.36-1.53a15.16,15.16,0,0,0-4-1.66,24.45,24.45,0,0,0-6.37-.69q-12.21,0-30.21,9.7,7.2,3.6,10.25,7.62T921.79,127.3Z"/><path class="cls-2" d="M1310.89,235.94l-51.82-9.51q.11-55.38.23-110.76l-19.79-.37q1.29-10.27,2.59-20.53l35,.27-12.3-11.56,7.56-8.24A98,98,0,0,1,1282.42,67a108.22,108.22,0,0,1,22.68-12.35c22.74-8.27,54.79,4.85,58,6.18l7.56,4.12a55.66,55.66,0,0,1,15.12,16.47,46.14,46.14,0,0,1,4.15,9.31l-3.05-2.94a47.06,47.06,0,0,0-8.59-6.69A64.86,64.86,0,0,0,1364,74.53a66,66,0,0,0-19.54-3q-30.77,0-50.44,23.56l33.78-.27-.06,20.6-17.31,0Q1310.64,175.67,1310.89,235.94Z"/><path class="cls-2" d="M1106.8,235.94,1055,226.43q1.59-55.76,3.19-111.5h-22.67q1.83-9.95,3.68-19.89H1073l-12.3-11.56,7.56-8.24A98,98,0,0,1,1078.32,67,108.22,108.22,0,0,1,1101,54.65c22.74-8.27,54.79,4.85,58,6.18l7.56,4.12a55.66,55.66,0,0,1,15.12,16.47,46.23,46.23,0,0,1,4.16,9.31l-3-2.94a47.42,47.42,0,0,0-8.59-6.69,64.74,64.74,0,0,0-14.28-6.57,66,66,0,0,0-19.54-3q-30.76,0-50.44,23.56h32.71l1.08,19.89L1106,117.45Q1106.42,176.69,1106.8,235.94Z"/><path class="cls-2" d="M1185.91,229.29h-2.5a57.12,57.12,0,0,1-35.47-15.38,101.17,101.17,0,0,1-23.42-33.4,175.08,175.08,0,0,1-12.34-39.08l9.7-19.68,3.33,8.87q9.42,25.5,27.72,41.3,11.64,10,29.1,10.25,11.35,0,17.6-3.74a20.92,20.92,0,0,0,8.73-9.28,26.3,26.3,0,0,0,2.49-10.81,23.21,23.21,0,0,0-1.11-7.62,8.28,8.28,0,0,0-2.77-4.3v.83q0,6.66-7.34,14.28a23.91,23.91,0,0,1-17.88,7.62,25.59,25.59,0,0,1-10.53-2.5,30,30,0,0,1-12.61-10.25,23.84,23.84,0,0,1-4.3-13.58q0-11.64,11.92-21.9a31.35,31.35,0,0,1,11.09-5.54h-75.39L1101,94.77h143.62q.44,10.31.88,20.61h-48a48,48,0,0,1,18.57,9.42,52,52,0,0,1,14,18q5.42,11.09,5.41,26.05l-.28,5.27a58.2,58.2,0,0,1-3.46,16.21,78.14,78.14,0,0,1-9.15,18.15,52.44,52.44,0,0,1-15.1,14.83Q1198.38,229.3,1185.91,229.29Z"/><path class="cls-2" d="M1445.61,241.51v0q-4.72-6.94-9.56-20t-4.85-32.15v-2.22l-7.49,5A198.65,198.65,0,0,0,1405.83,206a170.25,170.25,0,0,0-20.1,20.51l-52.1-11.64v-99.5h-15.8q-.07-10.3-.14-20.61H1484l-.43,20.61h-97.84v44.34a388.67,388.67,0,0,1,55.71-39.08l31.87,39.08-5.26,6.1q-5.28,6.38-10.67,18c-5.26,11.31-5.36,23.87-5.41,28a81.54,81.54,0,0,0,4.09,26.34Z"/><path class="cls-2" d="M1629.07,235.94l-6.65-10.25q-19.68-29.1-45.18-47.12-18.84-12.47-35.75-12.47-11.92,0-18.43,3.46t-9.15,8.6a21.93,21.93,0,0,0-2.63,10.11,18.11,18.11,0,0,0,1.11,6.51q1.11,2.91,2.77,3.74v-.83q0-5.81,6.93-12.75a22.7,22.7,0,0,1,16.63-6.92,24.48,24.48,0,0,1,10,2.21,28.44,28.44,0,0,1,11.78,9.43,21.12,21.12,0,0,1,4,12.19q0,10.54-11.08,20a33.39,33.39,0,0,1-20,6.37,43.2,43.2,0,0,1-21.06-5.82,47,47,0,0,1-17.46-17.18q-6.93-11.37-6.93-27.44l.28-4.43A57.62,57.62,0,0,1,1501,140.74q11.65-14.82,36.31-17.6l3.61-.28q19.95,0,36.3,13.86V115.38H1478q.46-10.3.94-20.61h166.3l-.39,20.61h-15.8Z"/><path class="cls-3" d="M935.92,266.68l-3.81,6.94h-2.85v44.43l6.37-4.47-6.37,12.93h-8V298.74l-1.42-2.86-1.62-2.38a10,10,0,0,0-1.14-1.52l-1.9-2.09a3.44,3.44,0,0,0-2.29-1.24,2.93,2.93,0,0,0-1.9,1,19.92,19.92,0,0,0-2.23,2.62c-.8,1.08-1.59,2.25-2.38,3.52s-1.56,2.5-2.28,3.71-1.41,2.28-2.05,3.23a22.19,22.19,0,0,1-1.52,2.09,13.42,13.42,0,0,1-2.71,2.24,6.3,6.3,0,0,1-3.47,1,6.12,6.12,0,0,1-2.71-.9,18.8,18.8,0,0,1-3.47-2.53,23.45,23.45,0,0,1-3.47-3.94,17.61,17.61,0,0,1-2.52-5.19l7.13-3.33a15.3,15.3,0,0,0,.76,2.14,15,15,0,0,0,1,2,8.81,8.81,0,0,0,1.18,1.52,1.81,1.81,0,0,0,1.29.62q1.42,0,3.71-3.23a18.53,18.53,0,0,0,2.38-4.24,10.19,10.19,0,0,0,.47-3.09,6.37,6.37,0,0,0-.43-2.52,7,7,0,0,0-1-1.71,7.6,7.6,0,0,0-1.23-1.24c-.45-.35-.86-.68-1.24-1a7.78,7.78,0,0,0-4.85-2,8.45,8.45,0,0,0-4.09,1.15l-.09-6.95H874.29l4.85-6.94Zm-14.36,19.59V273.62H896.93a15.86,15.86,0,0,1,3.94,1.9,17,17,0,0,1,2.86,2.43,24,24,0,0,1,2,2.52c.57.83,1.05,1.59,1.43,2.28l2.18-1.9a4.69,4.69,0,0,1,3.14-1.05,9.57,9.57,0,0,1,2.76.72,13.41,13.41,0,0,1,4,3.28Z"/><path class="cls-3" d="M963.21,320.24a9.7,9.7,0,0,1-3.47,4.18,10.23,10.23,0,0,1-6,1.71,12.36,12.36,0,0,1-8-2.66,21,21,0,0,1-5.47-6.71,33.35,33.35,0,0,1-3.13-8.75,41.87,41.87,0,0,1-1-8.7,36.37,36.37,0,0,1,2.66-14.42A32.52,32.52,0,0,1,947,273.62H930.5l3.89-6.94h30.15l-3.8,6.94a21.11,21.11,0,0,0-4.28,2.33,25.36,25.36,0,0,0-4.47,4,34.48,34.48,0,0,0-4.14,5.95,41.52,41.52,0,0,0-3.37,8.13,8.51,8.51,0,0,0-.48,2.38c-.06.89-.1,1.87-.1,2.95a31.85,31.85,0,0,0,.81,7.33,25.9,25.9,0,0,0,2.14,6,13.27,13.27,0,0,0,3.14,4.09,5.78,5.78,0,0,0,3.8,1.52,3,3,0,0,0,2.48-.95,8.65,8.65,0,0,0,1.33-2.76Z"/><path class="cls-3" d="M1020.84,266.68l-4,6.94h-61l4.85-6.94Zm-6.66,41.85a18.73,18.73,0,0,1-8.22,10.56q-6,3.63-16.22,3.62a19.86,19.86,0,0,1-8.18-2,30.86,30.86,0,0,1-8.27-5.66,35.88,35.88,0,0,1-6.42-7.94,22.83,22.83,0,0,1-3.09-8.09,3.86,3.86,0,0,1,.9-1.38c.61-.73,1.29-1.52,2.05-2.38s1.53-1.66,2.33-2.42a14.64,14.64,0,0,1,1.76-1.52,7.7,7.7,0,0,0-.1,1.61,15.74,15.74,0,0,0,2.14,7.66,28.28,28.28,0,0,0,5.38,6.9,32.29,32.29,0,0,0,6.84,5,14.2,14.2,0,0,0,6.66,1.95A15.17,15.17,0,0,0,998,313.1a17.55,17.55,0,0,0,5.32-3.66A17.76,17.76,0,0,0,1007,304a16.58,16.58,0,0,0,1.38-6.76,13.33,13.33,0,0,0-3.61-9,12.78,12.78,0,0,0-4.19-2.91,13.39,13.39,0,0,0-5.42-1.09,13.25,13.25,0,0,0-7.22,1.86,5.51,5.51,0,0,0-3,4.8,5.14,5.14,0,0,0,1.66,3.81,6.37,6.37,0,0,0,4.61,1.61,2.84,2.84,0,0,0,2.57-1.33l-2.66,12.27a19.27,19.27,0,0,1-5.61-2.33,22.71,22.71,0,0,1-4.9-3.95,20.85,20.85,0,0,1-3.47-4.94,12.41,12.41,0,0,1,0-11.18,13.3,13.3,0,0,1,3.9-4.57,19.24,19.24,0,0,1,6.28-3,30.23,30.23,0,0,1,8.55-1.1,19.56,19.56,0,0,1,7.75,1.57,19.88,19.88,0,0,1,10.75,11.09,22.64,22.64,0,0,1,1.57,8.56A34.56,34.56,0,0,1,1014.18,308.53Z"/><path class="cls-3" d="M1038.53,273.62H1038a16.19,16.19,0,0,0-5.14,6.14,18.26,18.26,0,0,0-1.52,7.56,22.39,22.39,0,0,0,.71,5.47c.48,1.87,1,3.81,1.62,5.8s1.17,4.05,1.71,6.14a33.69,33.69,0,0,1,1,6.47,20,20,0,0,1-.52,4.9,11.59,11.59,0,0,1-1.57,3.61,13.19,13.19,0,0,1-2.52,2.81,30.63,30.63,0,0,1-3.47,2.47,18.08,18.08,0,0,1-4.47,2.05,14.25,14.25,0,0,1-3.9.81l.19-8.09,3-1.14a11.19,11.19,0,0,0,3.14-2.09,8,8,0,0,0,1.66-2.29,6.61,6.61,0,0,0,.62-2.19c.06-.69.1-1.33.1-1.9a11.17,11.17,0,0,0-.53-2.95c-.35-1.2-.76-2.49-1.23-3.85s-1-2.73-1.52-4.09a38.45,38.45,0,0,1-1.29-3.76,19.07,19.07,0,0,1-.81-4.09c-.15-1.58-.23-3.36-.23-5.33a17.25,17.25,0,0,1,.57-4.56,21,21,0,0,1,1.33-3.67,15.35,15.35,0,0,1,1.57-2.61,17.37,17.37,0,0,1,1.38-1.62h-12.94l3.33-6.94h24.06Z"/><path class="cls-3" d="M1089.5,266.68l-3.8,6.94H1083v43.1l8.66-3.52-7.42,13.31h-8.56q-8.46-22.44-22-22.45a16.3,16.3,0,0,0-7.61,2l-3.7-16.27,32-16.17h-39.94l4.85-6.94Zm-25.2,53.56-4.19,9.7a10.41,10.41,0,0,0-2.75-6,8,8,0,0,0-5.9-2.19,10.65,10.65,0,0,0-1.24.05,2.54,2.54,0,0,0-.85.23l3.33-9.51a12.87,12.87,0,0,1,7.27,1.81A12.15,12.15,0,0,1,1064.3,320.24Zm10.08-11.42V283.13l-23.59,12.28q5.24.46,8.42.9a26.26,26.26,0,0,1,4.52.9Q1071.53,300.08,1074.38,308.82Z"/><path class="cls-3" d="M1166.53,266.68l-3.8,6.94h-2.86v44.43l6.37-4.47-6.37,12.93h-8V298.74l-1.42-2.86-1.62-2.38a9.37,9.37,0,0,0-1.14-1.52l-1.9-2.09a3.44,3.44,0,0,0-2.28-1.24,2.92,2.92,0,0,0-1.91,1,20.71,20.71,0,0,0-2.23,2.62c-.8,1.08-1.59,2.25-2.38,3.52s-1.55,2.5-2.28,3.71-1.41,2.28-2,3.23a22.19,22.19,0,0,1-1.52,2.09,13.42,13.42,0,0,1-2.71,2.24,6.28,6.28,0,0,1-3.47,1,6.12,6.12,0,0,1-2.71-.9,18.8,18.8,0,0,1-3.47-2.53,23.45,23.45,0,0,1-3.47-3.94,17.61,17.61,0,0,1-2.52-5.19l7.13-3.33a15.3,15.3,0,0,0,.76,2.14,15,15,0,0,0,1,2,8.37,8.37,0,0,0,1.19,1.52,1.79,1.79,0,0,0,1.28.62q1.43,0,3.71-3.23a18.53,18.53,0,0,0,2.38-4.24,10.19,10.19,0,0,0,.47-3.09,6.37,6.37,0,0,0-.43-2.52,7,7,0,0,0-1-1.71,8.07,8.07,0,0,0-1.24-1.24c-.44-.35-.86-.68-1.24-1a7.78,7.78,0,0,0-4.85-2,8.45,8.45,0,0,0-4.09,1.15l-.09-6.95h-12.93l4.84-6.94Zm-14.36,19.59V273.62h-24.63a15.93,15.93,0,0,1,4,1.9,17.3,17.3,0,0,1,2.85,2.43,24,24,0,0,1,2,2.52c.57.83,1,1.59,1.43,2.28l2.19-1.9a4.66,4.66,0,0,1,3.13-1.05,9.57,9.57,0,0,1,2.76.72,13.28,13.28,0,0,1,4,3.28Z"/><path class="cls-3" d="M1200.57,326.51a9.13,9.13,0,0,0-2.28-3.61,15.52,15.52,0,0,0-3.8-2.76,23.59,23.59,0,0,0-4.66-1.81,18.48,18.48,0,0,0-4.76-.66,9.76,9.76,0,0,0-5.61,1.33l-4.94-11.7L1199.91,294v-1a22.85,22.85,0,0,0-7.23-6.19,19.15,19.15,0,0,0-9.13-2.18,3,3,0,0,0-2.52.95,4,4,0,0,0-.71,2.47,6.68,6.68,0,0,0,1.47,4.66,4,4,0,0,0,2.71,1.62h.29l-4.28,8.28a13,13,0,0,1-8.32-4.52q-3.2-3.76-3.19-11.28,0-5.79,3.52-8.51a14.67,14.67,0,0,1,9.22-2.71,33.13,33.13,0,0,1,9.56,1.47,25.51,25.51,0,0,1,8.51,4.33v-7.8h-38.7l4.85-6.94h63l-4.85,6.94h-15.5V291l8.08-4,6.38,6.28v26.93l-7.71,5.23V297l-6.75,3.52v19l5.8-4.28-4.56,11.22Zm0-11.51V303.59L1188,310a17.78,17.78,0,0,1,6.85,1.52A18.74,18.74,0,0,1,1200.57,315Z"/><path class="cls-3" d="M1237.85,266.68h7l-4.76,6.94H1238v43.19l8.37-3.42-6.38,13.22h-10.08v-53h-7.6l4.08-6.94h3.52V256.4l8,5Z"/><path class="cls-3" d="M1271.9,320.24a9.78,9.78,0,0,1-3.47,4.18,10.23,10.23,0,0,1-6,1.71,12.36,12.36,0,0,1-8-2.66,21,21,0,0,1-5.47-6.71,33.37,33.37,0,0,1-3.14-8.75,42.56,42.56,0,0,1-1-8.7,36.37,36.37,0,0,1,2.67-14.42,32.52,32.52,0,0,1,8.18-11.27h-16.46l3.9-6.94h30.15l-3.81,6.94a21.06,21.06,0,0,0-4.27,2.33,24.68,24.68,0,0,0-4.47,4,34.48,34.48,0,0,0-4.14,5.95,41.52,41.52,0,0,0-3.38,8.13,8.89,8.89,0,0,0-.47,2.38c-.07.89-.1,1.87-.1,2.95a31.85,31.85,0,0,0,.81,7.33,25.9,25.9,0,0,0,2.14,6,13.12,13.12,0,0,0,3.14,4.09,5.78,5.78,0,0,0,3.8,1.52,3,3,0,0,0,2.48-.95,8.65,8.65,0,0,0,1.33-2.76Z"/><path class="cls-3" d="M1320.21,266.68l-3.81,6.94h-2.56v43.29l9.22-2.1-9.13,11.7h-8.65V306.63a31,31,0,0,0-3.57-6.18,38.88,38.88,0,0,0-4.85-5.47,25.54,25.54,0,0,0-5.37-3.9,10.79,10.79,0,0,0-5-1.48,3.35,3.35,0,0,0-2.9,1.38,5,5,0,0,0-1,3,4,4,0,0,0,.52,2,7.56,7.56,0,0,0,3.09,2.81l1.24.48-3.81,8.65q-11.11-4.08-11.12-13.89a12.94,12.94,0,0,1,1.33-5.89,14.32,14.32,0,0,1,3.47-4.52,15.8,15.8,0,0,1,4.8-2.86,15.23,15.23,0,0,1,5.33-1,19.21,19.21,0,0,1,10.22,2.76,23.2,23.2,0,0,1,7.56,7.61V273.62h-40.6l4.84-6.94Z"/><path class="cls-3" d="M1403,273.62v42.81l8.37-3.14-7,13.22h-9.8l-.09-8.08c-.64-1.08-1.21-2-1.71-2.81s-.92-1.44-1.24-1.95l-3.23-3.33a15.76,15.76,0,0,1-2.9,4.24,19.72,19.72,0,0,1-4.28,3.37,21.64,21.64,0,0,1-5.19,2.19,20.85,20.85,0,0,1-5.61.76,24.49,24.49,0,0,1-5.56-.62,20,20,0,0,1-5.37-2.09,25.68,25.68,0,0,1-5.33-4,38.44,38.44,0,0,1-5.23-6.47,63.39,63.39,0,0,1-7.51-15.13l6.66-6.75a28,28,0,0,0,2,7.7,46.77,46.77,0,0,0,3.81,7.47,35.47,35.47,0,0,0,4.75,6.09,17.62,17.62,0,0,0,5,3.76,15.12,15.12,0,0,0,6.66,1.52,11.83,11.83,0,0,0,4.9-1,12.61,12.61,0,0,0,3.85-2.62,11.86,11.86,0,0,0,3.42-8.27,2.67,2.67,0,0,1-.09-.57v-.48q-.76-8-4.09-12.27a10.57,10.57,0,0,0-8.75-4.28,10.27,10.27,0,0,0-6,1.66c-1.61,1.11-2.42,2.27-2.42,3.48a3,3,0,0,0,.76,2.14c.51.54,1.58.8,3.23.8l-1.52,8.47a10.3,10.3,0,0,1-4.28-.9,11.08,11.08,0,0,1-3.47-2.43,10.89,10.89,0,0,1-2.28-3.52,11.28,11.28,0,0,1-.81-4.28,11.91,11.91,0,0,1,1.33-5.66,13,13,0,0,1,3.62-4.28,17,17,0,0,1,5.27-2.71,21,21,0,0,1,6.33-.95,18.92,18.92,0,0,1,9,2.09,20.17,20.17,0,0,1,6.66,5.66,26,26,0,0,1,4.14,8.28,34.13,34.13,0,0,1,1.42,9.94l4.57,6.85V273.62h-59.34l4.85-6.94h86.63l-4.09,6.94h-2.85v43.19l8.37-3.42-6.37,13.22h-10.08v-53Z"/><path class="cls-3" d="M1481,266.68l-3.9,6.94h-2.57v43.76l7.7-3.42-6.46,12.55h-9.61V292.93l-26.53,11.89-2.85-7.61,8.37-4.18a6.92,6.92,0,0,0-1-3.47,13.88,13.88,0,0,0-2.33-3,12,12,0,0,0-3-2.14,6.55,6.55,0,0,0-2.85-.81.94.94,0,0,0-.86.48,3,3,0,0,0-.38,1.18,12.66,12.66,0,0,0-.09,1.57v1.72l-7.61,2.18a31.13,31.13,0,0,1,1.57-10.36,20.86,20.86,0,0,1,4.42-7.52,18.6,18.6,0,0,1,6.75-4.61,22.91,22.91,0,0,1,8.66-1.57,13.82,13.82,0,0,1,5.84,1.28,16.75,16.75,0,0,1,5.09,3.66,26.31,26.31,0,0,1,4.09,5.71,32.23,32.23,0,0,1,2.85,7.42V256.4l8,5v5.33Zm-21.59,19.5a16.9,16.9,0,0,0-5.47-8.56,12.36,12.36,0,0,0-7.75-2.86,9.35,9.35,0,0,0-6.75,2.57h.57a7.65,7.65,0,0,1,3.76,1.19,17.54,17.54,0,0,1,3.8,3,17.92,17.92,0,0,1,3,4,8.84,8.84,0,0,1,1.19,4.19Z"/><path class="cls-3" d="M1537.41,266.68l-3.8,6.94h-2.86v44.43l6.38-4.47-6.38,12.93h-8V298.74l-1.43-2.86-1.62-2.38a9.37,9.37,0,0,0-1.14-1.52l-1.9-2.09a3.42,3.42,0,0,0-2.28-1.24,2.91,2.91,0,0,0-1.9,1,19.91,19.91,0,0,0-2.24,2.62c-.79,1.08-1.58,2.25-2.38,3.52s-1.55,2.5-2.28,3.71-1.41,2.28-2,3.23a24.17,24.17,0,0,1-1.52,2.09,14,14,0,0,1-2.71,2.24,6.33,6.33,0,0,1-3.48,1,6.16,6.16,0,0,1-2.71-.9,19.14,19.14,0,0,1-3.47-2.53,23.91,23.91,0,0,1-3.47-3.94,17.61,17.61,0,0,1-2.52-5.19l7.13-3.33a16.69,16.69,0,0,0,.76,2.14,15,15,0,0,0,1,2,8.83,8.83,0,0,0,1.19,1.52,1.79,1.79,0,0,0,1.28.62q1.42,0,3.71-3.23a18.53,18.53,0,0,0,2.38-4.24,9.89,9.89,0,0,0,.47-3.09,6.57,6.57,0,0,0-.42-2.52,7.34,7.34,0,0,0-1-1.71,7.65,7.65,0,0,0-1.24-1.24c-.44-.35-.85-.68-1.23-1a7.8,7.8,0,0,0-4.85-2,8.39,8.39,0,0,0-4.09,1.15l-.1-6.95h-12.93l4.85-6.94Zm-14.36,19.59V273.62h-24.63a15.93,15.93,0,0,1,3.95,1.9,16.51,16.51,0,0,1,2.85,2.43,24.18,24.18,0,0,1,2,2.52c.57.83,1,1.59,1.42,2.28l2.19-1.9a4.67,4.67,0,0,1,3.14-1.05,9.74,9.74,0,0,1,2.76.72,13.4,13.4,0,0,1,4,3.28Z"/><path class="cls-3" d="M1585.53,266.68l-4.94,6.94H1532l4.66-6.94Zm-1,60.31-41.18-10.56-5.32-16.93c3.1.57,6,1,8.79,1.33a69,69,0,0,0,7.94.47,39.83,39.83,0,0,0,6.38-.47,16.31,16.31,0,0,0,5.08-1.62,9.11,9.11,0,0,0,3.38-3,8,8,0,0,0,1.24-4.52,5.85,5.85,0,0,0-1.29-3.67,12.37,12.37,0,0,0-3.28-2.9,16.45,16.45,0,0,0-4.56-1.9,20.67,20.67,0,0,0-5.14-.67,18.64,18.64,0,0,0-2.47.19,14.67,14.67,0,0,0-2.47.57,6.26,6.26,0,0,0-1.91,1,1.81,1.81,0,0,0-.76,1.38,4.53,4.53,0,0,0,1.38,2.81,5.6,5.6,0,0,0,4.42,1.57,12.28,12.28,0,0,0,3.14-.38l-3.9,8.37a15.1,15.1,0,0,1-5.23-.95,14.82,14.82,0,0,1-4.56-2.66,13.19,13.19,0,0,1-3.19-4.1,11.55,11.55,0,0,1-1.19-5.23,11.85,11.85,0,0,1,1.24-4.52,12.07,12.07,0,0,1,2.62-3.47,12.15,12.15,0,0,1,7.46-3.14l3.61-.14,1.91-.05a29.87,29.87,0,0,1,9.74,1.48,23.17,23.17,0,0,1,7.33,3.94,17.23,17.23,0,0,1,4.61,5.85,16.45,16.45,0,0,1,1.62,7.19,16.26,16.26,0,0,1-1.72,7.66,15.1,15.1,0,0,1-4.75,5.42,21.59,21.59,0,0,1-7.13,3.18,35.15,35.15,0,0,1-8.75,1.05,38.42,38.42,0,0,1-6.85-.57L1582,318Z"/><path class="cls-3" d="M1604.93,313.2l-6.37,13.31H1587V273.62h-8l4.85-6.94h3.8v-5.24a16.9,16.9,0,0,0-1.09-6.51,11.72,11.72,0,0,0-2.81-4.19,9.93,9.93,0,0,0-3.85-2.23,13.65,13.65,0,0,0-4.13-.67,20.48,20.48,0,0,0-6.09,1,38.55,38.55,0,0,0-6.52,2.71,47.92,47.92,0,0,0-6.37,4,40.23,40.23,0,0,0-5.56,4.94c-.63-.31-1.46-.74-2.47-1.28a11.94,11.94,0,0,1-2.86-2.14l2-2a58.4,58.4,0,0,1,14.27-10.27,31.57,31.57,0,0,1,14.17-3.71,20,20,0,0,1,13.69,5.13,18.62,18.62,0,0,1,3.9,6.33,30,30,0,0,1,1.62,10.89c0,.32,0,.76,0,1.33s-.08,1.21-.14,1.91h8.46l-3.8,6.94h-3.62v43.86Z"/><path class="cls-3" d="M1653.24,266.68l-3.8,6.94h-2.57v43.29l9.22-2.1-9.13,11.7h-8.65V306.63a31,31,0,0,0-3.57-6.18,38.26,38.26,0,0,0-4.85-5.47,25.54,25.54,0,0,0-5.37-3.9,10.79,10.79,0,0,0-5-1.48,3.36,3.36,0,0,0-2.9,1.38,5.05,5.05,0,0,0-1,3,4.07,4.07,0,0,0,.52,2,6,6,0,0,0,1.29,1.57,6.12,6.12,0,0,0,1.81,1.24l1.23.48-3.8,8.65q-11.13-4.08-11.13-13.89a12.94,12.94,0,0,1,1.33-5.89,14.47,14.47,0,0,1,3.47-4.52,15.73,15.73,0,0,1,4.81-2.86,15.18,15.18,0,0,1,5.32-1,19.24,19.24,0,0,1,10.23,2.76,23.2,23.2,0,0,1,7.56,7.61V273.62h-40.61l4.85-6.94Z"/></svg>