<svg width="1412" height="394" viewBox="0 0 1412 394" fill="none" xmlns="http://www.w3.org/2000/svg">
<rect x="0.5" y="0.634521" width="1411" height="392.731" rx="5.5" stroke="#C1C1C1"/>
<path d="M229.758 240.725C228.993 240.28 228.259 238.566 227.557 235.582C226.855 232.408 226.09 229.806 225.26 227.774C224.495 225.679 223.569 223.997 222.485 222.727C221.4 221.394 220.188 220.379 218.848 219.68C217.508 218.982 216.009 218.347 214.35 217.776C212.819 217.332 211.224 216.951 209.565 216.633C207.906 216.316 206.119 216.157 204.205 216.157L197.027 216.443L187.074 217.776L175.015 219.49L166.402 219.966C162.127 219.966 158.331 219.395 155.013 218.252C151.759 217.046 148.409 215.332 144.964 213.11C142.603 211.586 140.562 209.809 138.839 207.778C137.116 205.683 135.649 203.429 134.437 201.017L130.417 190.923C129.46 186.733 128.981 182.195 128.981 177.306L129.269 169.117L131.087 161.69L135.298 152.739L138.839 146.74L143.624 151.596L140.466 156.738C139.126 159.278 138.456 161.087 138.456 162.166L138.169 164.451L137.308 173.783L137.499 179.973L138.839 186.257C139.796 188.924 141.902 191.971 145.156 195.399C147.389 197.557 151.185 199.335 156.544 200.731C159.224 201.366 161.521 201.842 163.435 202.159C165.413 202.477 167.423 202.636 169.464 202.636L174.345 202.159L181.715 201.207L190.424 200.731C199.165 200.731 206.279 202.064 211.766 204.73L223.538 214.157V128.934C223.538 127.664 222.389 126.807 220.092 126.363L215.786 127.029L210.617 129.124C209.597 129.505 208.544 130.044 207.459 130.743C206.375 131.441 205.226 132.235 204.014 133.123L196.262 139.408C193.454 141.63 191.126 144.233 189.275 147.216C187.425 150.136 185.989 154.009 184.969 158.833L191.094 158.167L195.4 158.833C196.357 159.087 197.665 160.738 199.324 163.785C199.707 164.61 199.994 165.658 200.186 166.927L201.238 171.498C201.238 173.402 200.887 175.18 200.186 176.83C199.484 178.417 198.495 179.846 197.219 181.115C196.326 182.004 195.337 182.734 194.252 183.305C193.231 183.877 192.178 184.289 191.094 184.543L185.16 185.115C181.97 185.115 179.131 184.575 176.642 183.496C174.218 182.353 172.144 180.893 170.422 179.116C168.763 177.275 167.518 175.212 166.689 172.926C165.86 170.641 165.445 168.292 165.445 165.88L165.732 163.023C166.561 157.564 168.157 152.326 170.517 147.311C172.942 142.296 176.1 137.504 179.992 132.933C182.608 129.886 186.468 126.363 191.572 122.363L206.598 115.507L211.096 114.174L215.786 113.888C217.189 113.888 218.657 114.206 220.188 114.841C221.719 115.475 223.25 116.428 224.782 117.697L230.141 122.839C231.928 124.617 233.268 126.299 234.161 127.886C235.118 129.473 235.596 130.901 235.596 132.171V246.152L229.758 240.725Z" fill="#FF0000"/>
<path d="M337.522 126.839V135.599L339.819 135.218C347.603 135.218 355.833 139.059 364.51 146.74C375.804 156.326 381.45 168.483 381.45 183.21C381.45 186.321 380.94 189.209 379.919 191.875C378.898 194.478 377.494 196.764 375.708 198.731C373.985 200.636 371.975 202.128 369.678 203.207C367.382 204.223 364.957 204.73 362.405 204.73C357.875 204.73 353.696 202.604 349.868 198.351L347.571 194.351L346.901 190.447L347.571 186.257C347.826 185.432 348.145 184.67 348.528 183.972C348.974 183.21 349.517 182.48 350.155 181.782L353.696 178.449L360.682 177.306C364.128 177.306 367.19 178.513 369.87 180.925L372.071 183.21L372.741 181.115C372.741 177.941 372.199 175.116 371.114 172.641C369.583 168.133 367.063 164.42 363.553 161.5C361.001 158.833 358.003 156.611 354.557 154.834C350.091 152.549 345.306 151.406 340.201 151.406L337.235 151.596V245.01L333.024 240.725L329.483 230.44C328.845 228.473 327.664 226.219 325.941 223.68C324.219 221.14 322.018 218.252 319.338 215.014C314.106 208.095 309.097 203.429 304.312 201.017L298.187 197.494L290.435 194.161C289.031 193.526 287.149 192.955 284.789 192.447C282.428 191.875 279.525 191.368 276.079 190.923L259.81 171.022C262.681 168.863 265.935 166.515 269.571 163.975C273.208 161.436 277.324 158.738 281.917 155.881C289.957 150.993 296.943 147.216 302.877 144.55C308.81 141.884 316.562 138.995 326.133 135.885V126.839H254.45L242.391 115.031H385.183L396.763 126.839H337.522ZM325.654 151.882C319.976 153.596 315.191 155.532 311.299 157.691L298.666 164.642L290.818 170.07L283.64 175.307C286.256 176.386 288.553 177.37 290.531 178.259C292.509 179.147 294.199 180.1 295.603 181.115C296.241 181.496 296.847 181.877 297.422 182.258L299.336 183.496L301.728 185.305L304.791 187.59C306.513 188.924 308.3 190.479 310.15 192.256C312.001 193.97 313.787 195.938 315.51 198.16C317.041 200.128 318.668 202.35 320.391 204.826C322.113 207.301 323.868 210.063 325.654 213.11V151.882Z" fill="#FF0000"/>
<path d="M445.476 126.839H419.349V249.199L408.152 237.487V149.692C408.152 147.534 407.992 145.978 407.673 145.026C407.099 141.725 406.142 139.154 404.802 137.313C403.016 134.647 400.432 132.203 397.05 129.981C393.732 127.759 390.191 126.648 386.427 126.648L383.46 126.839L371.401 115.031H376.091L380.78 114.745H384.321C389.234 114.999 392.743 115.634 394.849 116.65C396.954 117.666 398.613 118.776 399.825 119.983C402.378 122.014 404.898 125.664 407.386 130.933L409.492 135.409L411.31 140.36L412.841 145.217L409.013 118.65L408.152 104.557V99.4146C408.152 97.3832 407.992 95.6057 407.673 94.0822L412.363 97.7958L413.32 103.89L414.181 107.604L415.33 110.175L418.009 113.508L419.349 115.031H433.705L445.476 126.839Z" fill="#FF0000"/>
<path d="M520.7 131.981C533.397 131.981 542.808 138.9 548.933 152.739C549.38 154.136 549.603 156.008 549.603 158.357C549.603 161.023 549.444 163.531 549.125 165.88C548.806 168.165 548.168 170.895 547.21 174.069C546.445 176.418 545.583 178.64 544.626 180.734C543.733 182.829 542.649 184.734 541.372 186.448C544.052 189.114 546.253 191.939 547.976 194.923L549.794 201.683L550.56 208.92C550.56 214.507 549.763 219.426 548.168 223.68C546.572 227.933 543.765 231.234 539.746 233.583L526.73 239.201C521.753 240.407 517.765 241.01 514.767 241.01C509.599 241.01 504.175 239.836 498.497 237.487C496.966 236.535 495.402 235.646 493.807 234.821C492.276 233.995 490.809 233.011 489.405 231.869L477.155 219.49L467.68 206.825L459.832 191.399L454.473 179.211L450.166 167.499L442.127 142.265L450.166 146.74L455.813 162.357C457.025 165.467 458.492 168.832 460.215 172.45C461.938 176.005 464.043 179.719 466.532 183.591L471.987 192.542C474.028 196.097 476.931 199.747 480.696 203.493L488.352 211.301C492.691 214.856 498.146 218.189 504.718 221.299C508.163 222.696 511.832 223.394 515.724 223.394C521.976 223.394 527.368 221.934 531.898 219.014C536.492 216.094 539.49 211.872 540.894 206.349L541.372 202.159C541.372 198.731 540.096 195.97 537.544 193.875L534.577 191.59C533.11 192.859 531.451 194.066 529.601 195.208L524.241 196.065C520.924 196.065 518.371 195.494 516.585 194.351C514.799 193.145 513.108 191.431 511.513 189.209C510.556 187.368 510.077 185.051 510.077 182.258C510.077 179.465 510.556 177.148 511.513 175.307C512.534 173.402 514.479 171.339 517.351 169.117C518.499 168.356 520.445 167.816 523.189 167.499L528.452 168.165L532.568 170.07C533.908 169.562 535.024 168.863 535.917 167.975C536.874 167.086 537.768 165.975 538.597 164.642C539.171 163.436 539.682 162.166 540.128 160.833C540.639 159.5 540.894 158.072 540.894 156.548C540.894 153.247 539.746 150.232 537.449 147.502C535.215 144.772 531.643 143.407 526.73 143.407C522.965 143.407 518.978 144.106 514.767 145.502C512.725 146.327 511.066 146.962 509.79 147.407C508.514 147.851 507.748 148.295 507.493 148.74L498.688 154.644C496.902 156.04 495.275 157.881 493.807 160.166C495.849 161.5 497.221 162.928 497.923 164.451C498.688 165.912 499.518 168.356 500.411 171.784C500.921 175.783 500.06 178.893 497.827 181.115L494.573 182.925C494.063 183.115 493.329 183.337 492.372 183.591C491.478 183.782 490.298 183.94 488.831 184.067C485.258 184.067 481.812 182.925 478.495 180.639C474.73 177.846 472.848 173.244 472.848 166.832C472.848 163.404 473.677 160.198 475.336 157.215C479.994 149.406 486.502 143.153 494.86 138.456C496.966 137.44 499.039 136.52 501.081 135.694C503.186 134.869 505.324 134.171 507.493 133.599C509.662 133.155 511.768 132.774 513.81 132.457C515.851 132.139 518.148 131.981 520.7 131.981ZM568.457 126.839H437.629L426.144 115.031H556.398L568.457 126.839Z" fill="#FF0000"/>
<path d="M644.064 126.839V245.486L639.565 241.201L629.038 221.775C628.208 220.061 626.964 218.22 625.305 216.252C623.71 214.221 621.828 212.094 619.659 209.872C615.958 206.254 612.034 203.143 607.887 200.541L597.073 194.923C590.947 192.129 584.535 190.733 577.836 190.733L562.427 169.784L576.305 160.547L583.77 156.072C586.258 154.739 588.778 153.406 591.33 152.073L611.333 142.455L632.388 134.456V126.839H560.322L548.646 115.031H653.251L665.31 126.839H644.064ZM608.557 230.25C606.452 233.995 603.389 235.868 599.369 235.868C597.966 235.868 596.498 235.582 594.967 235.011C593.436 234.376 592.032 233.519 590.756 232.44C589.544 231.297 588.555 229.964 587.789 228.441C587.024 226.854 586.641 225.108 586.641 223.204C586.641 222.124 586.8 221.109 587.119 220.156C587.502 219.141 588.013 218.125 588.651 217.109C590.947 213.554 594.074 211.777 598.03 211.777C599.497 211.777 600.965 212.094 602.432 212.729C603.963 213.3 605.303 214.126 606.452 215.205C607.664 216.221 608.621 217.459 609.323 218.919C610.088 220.379 610.471 221.934 610.471 223.584C610.471 224.473 610.407 225.172 610.28 225.679C610.216 226.124 610.12 226.536 609.993 226.917L608.557 230.25ZM632.388 151.882L624.061 154.358L618.702 156.548L606.164 162.833L595.828 169.117L586.641 175.783L593.053 178.449C594.201 178.957 595.127 179.37 595.828 179.687C596.53 180.004 597.136 180.322 597.647 180.639C598.221 180.957 598.795 181.306 599.369 181.687C599.944 182.068 600.646 182.575 601.475 183.21L607.887 187.876L614.874 194.161L624.827 204.73C625.465 205.492 626.039 206.254 626.55 207.016C627.124 207.714 627.698 208.539 628.272 209.492L629.995 212.539L632.388 216.633V151.882Z" fill="#FF0000"/>
<path d="M826.381 126.839V246.819L815.088 236.535V229.583L814.896 229.107L812.312 226.06L808.771 223.204C808.133 222.569 807.559 222.061 807.048 221.68C806.602 221.236 806.059 220.887 805.421 220.633L798.914 218.442L794.894 218.062C793.809 218.062 792.852 218.093 792.023 218.157C791.257 218.22 790.555 218.316 789.917 218.442C788.833 218.442 787.812 218.538 786.855 218.728C785.898 218.855 784.973 219.109 784.079 219.49L776.232 221.585L769.054 222.727H763.216L756.325 223.204C747.903 223.204 740.853 221.617 735.174 218.442C731.793 216.855 728.953 215.141 726.657 213.3C724.36 211.396 722.573 209.46 721.297 207.492L719 203.778L716.99 199.303L716.129 192.732L716.512 185.305L717.469 173.593L725.508 180.639L724.168 182.258L723.594 184.353C723.594 185.749 723.626 186.86 723.69 187.686C723.817 188.511 723.977 189.114 724.168 189.495L726.178 195.208C726.369 195.97 726.976 196.732 727.996 197.494L730.676 199.588L734.026 201.683L737.95 203.493L742.161 204.73L748.86 205.873H753.55L763.886 205.207L773.073 203.493L785.898 202.35H788.29L791.066 202.826L799.105 204.35L803.412 206.159C804.751 206.603 805.804 207.206 806.57 207.968L811.738 212.158L815.088 215.776V176.926L813.939 172.926L811.259 166.165L809.92 162.642L806.091 156.358C805.262 154.326 804.273 152.993 803.125 152.358L800.253 150.359L760.057 190.257L743.405 184.067L753.55 173.307C754.251 172.736 754.762 171.911 755.081 170.831C755.4 169.689 755.559 168.356 755.559 166.832C755.559 165.435 755.4 164.071 755.081 162.737C754.762 161.341 754.251 160.071 753.55 158.929C752.848 157.786 752.018 156.865 751.061 156.167C750.104 155.405 749.02 155.024 747.807 155.024C746.276 155.024 745.128 155.374 744.362 156.072C743.405 156.77 739.672 157.913 733.164 159.5C732.335 159.5 730.389 158.833 727.326 157.5C724.647 155.786 723.307 153.406 723.307 150.359C723.307 149.279 724.041 147.121 725.508 143.883C727.869 139.757 730.325 136.17 732.877 133.123C735.493 130.013 738.205 127.346 741.012 125.125C748.413 119.729 757.601 117.031 768.575 117.031C773.807 117.031 778.72 117.919 783.314 119.697C787.971 121.411 792.374 124.109 796.521 127.791C799.647 130.457 802.423 133.472 804.847 136.837C807.336 140.138 809.473 143.725 811.259 147.597L812.791 152.358L814.418 156.548L817.289 163.499L815.088 134.076V99.6051L819.299 102.271L820.064 103.414C820.064 107.223 821.021 110.206 822.935 112.365L828.965 115.031H837.865L844.756 126.839H826.381ZM790.396 138.075C789.949 137.186 789.024 136.234 787.62 135.218L783.601 132.457C781.24 130.552 777.635 129.6 772.786 129.6C768.448 129.6 764.556 130.14 761.11 131.219C757.729 132.235 754.698 133.98 752.018 136.456C751.125 137.345 750.2 138.487 749.243 139.884C748.286 141.217 747.265 142.772 746.18 144.55C748.86 144.55 751.029 144.963 752.688 145.788C754.858 146.232 756.516 147.375 757.665 149.216C758.877 150.676 760.057 152.803 761.206 155.596C761.972 157.119 762.641 159.468 763.216 162.642L762.641 165.499L790.396 138.075Z" fill="#13A725"/>
<path d="M940.173 87.5118C938.196 85.7978 935.899 84.2425 933.283 82.8459C930.667 81.3859 927.636 80.1162 924.191 79.037C917.428 76.6882 912.323 75.2916 908.878 74.8473L899.499 74.1807C895.671 74.1807 891.651 74.6251 887.44 75.5138C883.612 75.9582 879.943 77.3865 876.434 79.7988C872.989 81.9572 871.107 83.3538 870.788 83.9886L865.428 90.2733L860.069 98.4624C858.537 101.319 857.644 103.509 857.389 105.033L861.887 115.031H883.038L892.895 126.839H865.907V247.485L853.848 237.011L854.039 126.839H836.908L825.137 115.031H855.284L844.852 104.081C843.767 103.001 843.225 101.224 843.225 98.7481C843.225 96.4627 843.544 94.59 844.182 93.1299L845.713 88.9402L852.125 79.037C853.848 76.5613 855.22 74.7838 856.241 73.7046C857.772 72.435 859.941 71.0066 862.748 69.4196C865.556 67.7691 868.937 65.9916 872.893 64.0871C877.04 62.1827 882.208 61.2305 888.397 61.2305C892.736 61.2305 897.17 61.7066 901.7 62.6588C906.294 63.5475 911.366 65.1028 916.917 67.3247L927.253 71.8001C928.976 72.5619 930.603 73.3554 932.134 74.1807C933.729 74.9425 935.229 75.863 936.632 76.9421C938.866 78.2118 941.354 79.9893 944.097 82.2746C946.905 84.5599 949.999 87.2896 953.381 90.4637L957.496 94.9392L960.176 102.462L940.173 87.5118Z" fill="#13A725"/>
<path d="M882.177 126.839L870.501 115.031H1007.45L1019.99 126.839H882.177ZM1004.3 186.067C1004.3 193.939 1002.57 201.017 999.128 207.301C996.193 212.697 991.694 217.617 985.633 222.061L976.446 226.727L970.608 228.917C968.757 229.361 964.865 229.583 958.932 229.583C953.381 229.583 947.702 228.314 941.896 225.775C939.472 224.568 937.334 223.458 935.484 222.442C933.697 221.426 932.166 220.379 930.89 219.299L926.679 215.014L919.023 205.683L910.027 191.209L906.868 185.305L904.858 180.925L893.47 152.739C892.64 150.771 891.811 148.232 890.981 145.121C890.152 141.947 889.259 138.107 888.302 133.599L895.192 136.456L900.552 149.216L910.409 169.593L919.023 184.067L925.722 193.209C927.126 195.177 928.498 196.891 929.837 198.351C931.241 199.811 932.581 200.985 933.857 201.874L941.226 207.492L949.074 210.158L956.252 211.015L963.813 210.349L970.129 208.635C972.171 207.936 974.372 206.825 976.733 205.302C979.093 203.778 981.614 201.779 984.293 199.303C984.995 198.668 985.665 197.874 986.303 196.922C987.005 195.907 987.739 194.764 988.504 193.494L991.567 187.876C992.332 186.353 992.875 184.797 993.194 183.21C993.513 181.56 993.672 179.973 993.672 178.449V175.973C993.672 175.339 993.64 174.799 993.577 174.355C993.513 173.847 993.417 173.371 993.29 172.926C993.29 171.466 992.651 169.34 991.375 166.546C990.099 163.753 988.281 161.182 985.92 158.833L982.762 156.548L978.934 153.882C978.296 153.691 977.562 153.501 976.733 153.31C975.903 153.12 974.914 152.93 973.766 152.739C972.298 152.739 970.895 152.834 969.555 153.025C968.279 153.215 967.066 153.501 965.918 153.882C968.917 157.818 970.416 162.293 970.416 167.308C970.416 171.054 969.427 174.386 967.449 177.306C965.535 180.163 962.6 182.131 958.644 183.21L954.433 183.877L950.414 184.067C947.734 184.067 945.31 183.496 943.14 182.353C940.971 181.211 938.929 179.528 937.015 177.306C935.165 174.767 933.666 170.895 932.517 165.689L932.039 161.214C932.039 156.834 933.155 153.057 935.388 149.882L939.886 144.74C942.311 142.328 945.278 140.455 948.787 139.122C952.296 137.789 955.901 137.123 959.602 137.123L964.961 137.599L970.416 138.456C975.201 139.598 979.54 141.535 983.432 144.264C987.388 146.994 990.961 150.517 994.151 154.834L999.319 164.166L1002.09 171.498C1003.56 176.513 1004.3 181.369 1004.3 186.067Z" fill="#13A725"/>
<path d="M1114.74 87.5118C1112.76 85.7978 1110.46 84.2425 1107.85 82.8459C1105.23 81.3859 1102.2 80.1162 1098.76 79.037C1091.99 76.6882 1086.89 75.2916 1083.44 74.8473L1074.06 74.1807C1070.24 74.1807 1066.22 74.6251 1062.01 75.5138C1058.18 75.9582 1054.51 77.3865 1051 79.7988C1047.55 81.9572 1045.67 83.3538 1045.35 83.9886L1039.99 90.2733L1034.63 98.4624C1033.1 101.319 1032.21 103.509 1031.95 105.033L1036.45 115.031H1057.6L1067.46 126.839H1040.47V247.485L1028.41 237.011L1028.6 126.839H1011.47L999.702 115.031H1029.85L1019.42 104.081C1018.33 103.001 1017.79 101.224 1017.79 98.7481C1017.79 96.4627 1018.11 94.59 1018.75 93.1299L1020.28 88.9402L1026.69 79.037C1028.41 76.5613 1029.78 74.7838 1030.81 73.7046C1032.34 72.435 1034.51 71.0066 1037.31 69.4196C1040.12 67.7691 1043.5 65.9916 1047.46 64.0871C1051.61 62.1827 1056.77 61.2305 1062.96 61.2305C1067.3 61.2305 1071.74 61.7066 1076.27 62.6588C1080.86 63.5475 1085.93 65.1028 1091.48 67.3247L1101.82 71.8001C1103.54 72.5619 1105.17 73.3554 1106.7 74.1807C1108.29 74.9425 1109.79 75.863 1111.2 76.9421C1113.43 78.2118 1115.92 79.9893 1118.66 82.2746C1121.47 84.5599 1124.56 87.2896 1127.95 90.4637L1132.06 94.9392L1134.74 102.462L1114.74 87.5118Z" fill="#13A725"/>
<path d="M1176.66 126.839H1081.91V176.164L1086.89 172.45L1102.58 158.643C1104.94 156.802 1107.5 155.024 1110.24 153.31L1118.85 148.073L1134.65 141.122L1155.03 156.358L1149.19 168.641C1145.3 178.036 1142.62 186.797 1141.15 194.923L1140.29 203.016L1139.81 215.491L1140.29 220.442L1140.96 224.156L1141.15 228.346L1142.59 234.44L1144.02 240.344L1146.13 246.152L1137.8 243.01L1133.98 231.202L1131.49 223.204L1129.67 213.3L1128.23 199.303L1127.95 194.351V189.495L1128.23 183.401L1129 177.592L1132.25 164.451L1126.32 166.737C1124.15 167.562 1121.92 168.673 1119.62 170.07L1113.97 173.307C1112.51 174.259 1110.94 175.592 1109.28 177.306C1106.28 179.973 1103.57 182.544 1101.15 185.019C1098.79 187.495 1096.78 190.003 1095.12 192.542C1092.76 195.526 1090.75 198.509 1089.09 201.493C1087.43 204.413 1086.06 207.206 1084.97 209.872L1069.18 193.685V126.839H1057.22L1045.74 115.031H1164.7L1176.66 126.839Z" fill="#13A725"/>
<path d="M1258.87 126.839V248.723L1254.37 243.01L1254.66 239.582C1254.66 236.408 1254.28 232.853 1253.51 228.917C1252.81 224.981 1251.69 220.664 1250.16 215.967C1247.42 206.698 1244.13 198.065 1240.3 190.066C1239.15 187.654 1237.5 185.273 1235.33 182.925L1227.86 175.783C1220.84 170.133 1214.49 167.308 1208.82 167.308L1207.86 169.308C1212.26 175.148 1214.46 180.068 1214.46 184.067C1214.46 185.273 1214.4 186.257 1214.27 187.019C1214.21 187.781 1214.11 188.352 1213.98 188.733C1213.98 189.622 1213.54 190.955 1212.64 192.732C1210.16 197.811 1205.43 200.35 1198.48 200.35L1192.36 199.588C1188.27 199.017 1184.79 197.621 1181.92 195.399C1179.88 193.24 1178.1 189.177 1176.56 183.21L1176.09 178.259C1176.09 174.386 1176.82 170.8 1178.29 167.499C1179.82 164.134 1181.86 161.277 1184.41 158.929C1186.96 156.58 1189.96 154.739 1193.41 153.406C1196.92 152.073 1200.65 151.406 1204.61 151.406L1209.49 151.596C1210.83 151.596 1212.77 152.136 1215.32 153.215C1218.13 153.914 1221.19 155.564 1224.51 158.167C1229.23 161.531 1233.73 166.451 1238.01 172.926C1244.13 182.321 1247.19 187.749 1247.19 189.209V126.839H1167.09L1155.41 115.031H1267.2L1279.35 126.839H1258.87Z" fill="#13A725"/>
<path d="M767.465 296.958C767.155 297.187 766.89 297.446 766.669 297.737C766.449 298.028 766.25 298.36 766.073 298.734C766.029 299.212 765.963 299.679 765.874 300.136C765.808 300.593 765.753 301.06 765.709 301.538V303.501C765.709 304.311 765.786 305.235 765.94 306.274C766.117 307.312 766.36 308.486 766.669 309.794C766.979 311.124 767.211 312.318 767.365 313.377C767.542 314.416 767.63 315.371 767.63 316.243C767.652 316.825 767.674 317.417 767.697 318.019C767.741 318.621 767.774 319.213 767.796 319.795L768.028 322.194V324.001L767.796 324.842C767.774 325.05 767.719 325.268 767.63 325.496C767.542 325.725 767.365 326.068 767.1 326.524L766.802 326.992L766.835 326.961C765.863 328.83 764.052 330.543 761.401 332.101C759.17 333.41 757.436 334.064 756.199 334.064C755.249 334.064 754.487 333.524 753.913 332.444C753.714 331.696 754.321 331.084 755.735 330.606C756.773 330.481 757.458 330.263 757.79 329.952L761.103 327.335C761.434 326.836 761.688 326.171 761.865 325.341C762.064 324.489 762.163 323.492 762.163 322.35C761.854 321 761.523 319.639 761.169 318.268C760.816 316.877 760.484 315.506 760.175 314.156V314.187C759.844 312.941 759.601 311.778 759.446 310.698C759.292 309.597 759.214 308.558 759.214 307.582C759.214 306.731 759.292 305.869 759.446 304.996C759.623 304.124 759.833 303.324 760.076 302.597C760.319 301.85 760.562 301.206 760.805 300.666C761.048 300.126 761.258 299.762 761.434 299.575L764.615 295.401H754.344L749.34 290.727H773.064L777.04 295.432L773.097 295.401H772.368C771.441 295.401 770.568 295.515 769.751 295.743C768.934 295.951 768.183 296.346 767.498 296.927L767.465 296.958ZM751.892 295.401V335.123L749.407 332.039L749.506 330.793C749.506 328.84 749.009 326.4 748.015 323.471C747.573 322.121 747.054 320.719 746.458 319.265C745.861 317.811 745.276 316.472 744.702 315.246C744.503 314.914 744.271 314.571 744.006 314.218C743.763 313.844 743.476 313.481 743.144 313.128L740.659 310.885C739.665 310.158 738.66 309.566 737.644 309.109C736.628 308.631 735.7 308.361 734.861 308.299C734.861 308.34 734.839 308.382 734.795 308.423C736.208 310.21 736.915 311.788 736.915 313.159C736.915 313.554 736.904 313.876 736.882 314.125C736.86 314.353 736.816 314.551 736.749 314.717C736.749 315.028 736.584 315.506 736.252 316.15C735.303 317.915 733.558 318.798 731.017 318.798L728.93 318.549C728.179 318.445 727.483 318.279 726.842 318.05C726.224 317.801 725.661 317.5 725.153 317.147C724.357 316.316 723.706 314.945 723.198 313.034L723.032 311.352C723.032 310.043 723.297 308.839 723.827 307.738C724.357 306.616 725.075 305.661 725.981 304.872C726.887 304.062 727.958 303.439 729.195 303.002C730.432 302.545 731.746 302.317 733.138 302.317L734.761 302.379C735.269 302.379 735.965 302.556 736.849 302.909C737.313 302.992 737.832 303.2 738.406 303.532C739.003 303.844 739.577 304.186 740.129 304.56C740.902 305.1 741.697 305.786 742.515 306.616C743.332 307.447 744.094 308.371 744.801 309.389C745.729 310.76 746.458 311.882 746.988 312.754V295.401H720.282L715.444 290.727H754.41L759.479 295.401H751.892Z" fill="#322D2D"/>
<path d="M793.839 295.401H784.33V335.03L779.592 330.357V302.224C779.592 301.559 779.525 301.04 779.393 300.666C779.238 299.793 778.962 299.087 778.564 298.547C778.255 298.153 777.902 297.779 777.504 297.426C777.107 297.052 776.632 296.688 776.079 296.335C774.997 295.671 773.893 295.338 772.766 295.338L771.573 295.401L766.504 290.727H769.254L770.811 290.634H772.037C773.826 290.738 775.085 290.966 775.814 291.319C776.212 291.506 776.554 291.693 776.842 291.88C777.151 292.046 777.416 292.233 777.637 292.441L777.57 292.41C778.476 293.074 779.371 294.3 780.254 296.086L780.486 296.553L779.89 292.41L779.592 287.892V286.21C779.592 285.94 779.547 285.556 779.459 285.057C779.393 284.559 779.293 283.998 779.161 283.375L781.944 285.462L782.309 287.55L782.541 288.64L782.905 289.419L783.767 290.447L784.065 290.727H788.902L793.839 295.401Z" fill="#322D2D"/>
<path d="M811.036 297.083C809.799 297.623 808.716 298.121 807.789 298.578C806.883 299.015 806.176 299.399 805.668 299.731C804.431 300.645 803.349 301.704 802.421 302.909C801.493 304.093 800.742 305.453 800.168 306.99L800.201 306.928L799.141 311.352C799.052 311.954 798.953 312.546 798.842 313.128C798.754 313.689 798.666 314.27 798.577 314.872V314.841L798.478 317.49L798.677 320.293C798.743 320.709 798.842 321.176 798.975 321.695C799.13 322.194 799.317 322.703 799.538 323.222C799.759 323.741 800.013 324.24 800.3 324.717C800.61 325.174 800.941 325.569 801.294 325.901H801.261C801.681 326.234 802.178 326.608 802.752 327.023C803.327 327.418 803.967 327.843 804.674 328.3L804.608 328.238C805.005 328.404 805.469 328.487 805.999 328.487H806.033L805.801 328.3C805.072 327.553 804.575 326.618 804.31 325.496V324.219C804.42 323.43 804.718 322.755 805.204 322.194C805.69 321.612 806.331 321.124 807.126 320.73L809.147 320.169C809.456 320.169 809.755 320.21 810.042 320.293C810.329 320.356 810.583 320.439 810.804 320.543C811.003 320.626 811.19 320.698 811.367 320.761C811.566 320.802 811.754 320.865 811.93 320.948C812.284 321.093 812.626 321.322 812.958 321.633C813.289 321.924 813.587 322.277 813.852 322.692C814.117 323.087 814.327 323.523 814.482 324.001C814.658 324.479 814.747 324.967 814.747 325.465C814.747 326.005 814.669 326.556 814.515 327.116C814.382 327.656 814.139 328.186 813.786 328.705C813.455 329.225 813.002 329.723 812.427 330.201C811.853 330.658 811.135 331.084 810.274 331.478C809.677 331.665 809.114 331.8 808.584 331.883C808.076 331.966 807.612 332.008 807.192 332.008C806.044 332.008 804.895 331.862 803.746 331.572C802.62 331.281 801.659 330.803 800.864 330.138V330.17C799.516 329.11 798.334 327.864 797.318 326.431C796.302 324.998 795.474 323.367 794.833 321.54C794.347 320.127 793.994 318.746 793.773 317.396C793.552 316.046 793.442 314.665 793.442 313.252V311.259L793.674 308.455V308.486C793.674 307.468 794.314 305.619 795.595 302.94C796.81 300.51 798.566 297.997 800.864 295.401H789.83L784.86 290.727H811.732L816.271 295.058L811.036 297.083Z" fill="#322D2D"/>
<path d="M844.7 295.401V334.438L842.115 331.883C841.74 331.032 841.353 330.211 840.956 329.422C840.58 328.612 840.138 327.875 839.63 327.21C839.189 326.483 838.614 325.714 837.907 324.904C837.223 324.094 836.394 323.274 835.422 322.443C834.362 321.529 833.357 320.771 832.407 320.169C831.457 319.567 830.485 319.089 829.491 318.736C828.519 318.362 827.481 318.102 826.377 317.957C825.272 317.811 824.013 317.739 822.599 317.739L816.867 310.916L820.843 307.364L824.554 304.28L828.332 301.538C828.155 301.434 827.967 301.299 827.768 301.133C827.57 300.967 827.36 300.78 827.139 300.572H827.172C826.686 300.178 826.023 299.866 825.184 299.638C824.345 299.388 823.328 299.191 822.136 299.046C820.877 298.9 819.739 298.661 818.723 298.329C817.707 297.976 816.79 297.54 815.973 297.021V297.052C815.73 296.906 815.498 296.719 815.277 296.491C815.078 296.242 814.835 295.972 814.548 295.681V295.712L814.349 295.494L809.512 290.727H848.775L853.944 295.401H844.7ZM832.142 329.235C831.258 330.564 830.044 331.229 828.497 331.229C827.857 331.229 827.238 331.104 826.642 330.855C826.068 330.606 825.559 330.273 825.118 329.858C824.676 329.422 824.311 328.934 824.024 328.394C823.759 327.833 823.627 327.251 823.627 326.649C823.627 325.943 823.77 325.33 824.057 324.811C824.345 324.271 824.698 323.835 825.118 323.502C825.559 323.149 826.034 322.89 826.542 322.724C827.073 322.537 827.57 322.443 828.033 322.443C828.674 322.443 829.293 322.557 829.889 322.786C830.485 323.014 831.004 323.336 831.446 323.752C831.91 324.146 832.275 324.614 832.54 325.154C832.827 325.673 832.97 326.223 832.97 326.805C832.97 327.407 832.694 328.207 832.142 329.204V329.235ZM839.763 322.069V295.401H827.437L828 295.743C828.773 296.242 829.524 296.896 830.253 297.706C830.585 298.059 830.982 298.454 831.446 298.89C831.932 299.326 832.363 299.721 832.738 300.074L835.986 303.657L834.395 305.246L831.546 307.645L829.359 309.67L826.741 312.442C827.05 312.546 827.349 312.66 827.636 312.785C827.923 312.889 828.21 312.982 828.497 313.066L830.121 313.751C830.784 314.021 831.501 314.416 832.275 314.935C833.07 315.454 833.898 316.077 834.76 316.804L837.775 319.608L838.537 320.512L839.332 321.54L839.763 322.069Z" fill="#322D2D"/>
<path d="M881.545 295.401V333.846L879.192 331.696L875.548 325.372C875.282 324.832 874.885 324.25 874.355 323.627C873.825 323.004 873.206 322.36 872.499 321.695C871.881 321.155 871.251 320.647 870.611 320.169C869.97 319.67 869.307 319.213 868.623 318.798H868.656L865.011 317.022L865.044 317.053C864.028 316.638 862.979 316.316 861.896 316.088C860.836 315.859 859.709 315.745 858.517 315.745L852.917 308.517L857.987 305.308L860.538 303.875L863.089 302.597L869.848 299.513L876.674 297.083V295.401H850.299L845.429 290.727H884.361L889.431 295.401H881.545ZM869.617 327.926C868.755 329.38 867.562 330.107 866.038 330.107C865.486 330.107 864.923 330.003 864.348 329.796C863.796 329.567 863.288 329.266 862.824 328.892C862.36 328.498 861.985 328.03 861.698 327.49C861.41 326.929 861.267 326.306 861.267 325.621C861.267 325.206 861.322 324.832 861.432 324.499C861.565 324.146 861.753 323.793 861.996 323.44C862.857 322.173 864.05 321.54 865.574 321.54C866.126 321.54 866.679 321.654 867.231 321.882C867.783 322.09 868.28 322.381 868.722 322.755C869.186 323.129 869.55 323.575 869.815 324.094C870.103 324.614 870.246 325.164 870.246 325.746C870.246 326.078 870.224 326.327 870.18 326.493C870.158 326.659 870.114 326.826 870.047 326.992L869.617 327.926ZM874.951 319.483C875.459 320.065 875.868 320.574 876.177 321.01L876.674 321.851V303.501C876.299 303.605 875.923 303.719 875.548 303.844C875.194 303.947 874.83 304.041 874.454 304.124H874.487L872.731 304.841C872.024 305.173 871.317 305.505 870.611 305.838C869.904 306.149 869.208 306.471 868.523 306.803H868.556L865.077 308.797L865.11 308.766L862.725 310.417L864.083 310.947C864.459 311.113 864.779 311.259 865.044 311.383C865.309 311.487 865.541 311.591 865.74 311.695C865.961 311.799 866.16 311.923 866.336 312.069C866.535 312.193 866.767 312.349 867.032 312.536L869.186 314.031L871.605 316.056L874.951 319.483Z" fill="#322D2D"/>
<path d="M942.942 295.401V334.157L938.171 330.045V310.885L937.839 309.732V309.763L936.912 307.613L936.481 306.554C936.26 306.243 936.028 305.91 935.785 305.557C935.564 305.204 935.365 304.872 935.189 304.56C934.924 304.02 934.636 303.657 934.327 303.47L933.698 303.034C931.467 305.131 929.236 307.24 927.005 309.358C924.773 311.477 922.531 313.574 920.278 315.651L913.685 313.346L917.661 309.389C917.97 309.119 918.125 308.548 918.125 307.676C918.125 307.302 918.08 306.918 917.992 306.523C917.904 306.128 917.76 305.775 917.561 305.464C917.385 305.152 917.164 304.892 916.899 304.685C916.634 304.477 916.335 304.373 916.004 304.373C915.629 304.373 915.33 304.456 915.109 304.622C914.889 304.768 914.458 304.934 913.817 305.121C913.177 305.308 912.304 305.536 911.2 305.806C910.824 305.806 910.051 305.578 908.88 305.121C907.798 304.456 907.257 303.563 907.257 302.442C907.257 302.213 907.312 301.933 907.422 301.6C907.555 301.247 907.743 300.822 907.986 300.323C908.825 298.89 909.698 297.665 910.603 296.647C911.509 295.629 912.448 294.757 913.42 294.03C915.982 292.264 919.174 291.382 922.995 291.382C924.785 291.382 926.496 291.683 928.131 292.285C929.766 292.887 931.301 293.77 932.737 294.933C934.879 296.699 936.558 298.807 937.773 301.258L938.336 302.94V302.909L938.701 303.844L938.171 297.301V285.431L940.424 286.802L940.821 287.394C940.821 288.495 941.075 289.346 941.583 289.948L943.273 290.727H945.99L950.53 295.401H942.942ZM920.941 303.906C921.096 304.155 921.217 304.456 921.305 304.809C921.416 305.163 921.515 305.568 921.604 306.024L929.688 298.454C929.556 298.308 929.368 298.153 929.125 297.986L929.158 298.018L927.833 297.176C927.06 296.574 925.922 296.273 924.42 296.273C922.984 296.273 921.725 296.439 920.643 296.771C919.56 297.083 918.588 297.613 917.727 298.36H917.76C917.34 298.755 916.854 299.357 916.302 300.167C916.877 300.23 917.363 300.354 917.76 300.541C918.202 300.624 918.577 300.79 918.887 301.04C919.218 301.268 919.505 301.528 919.748 301.819C919.991 302.089 920.201 302.4 920.378 302.753C920.577 303.086 920.775 303.48 920.974 303.937L920.941 303.906Z" fill="#322D2D"/>
<path d="M968.621 297.083C967.384 297.623 966.301 298.121 965.374 298.578C964.468 299.015 963.761 299.399 963.253 299.731C962.016 300.645 960.934 301.704 960.006 302.909C959.078 304.093 958.327 305.453 957.753 306.99L957.786 306.928L956.726 311.352C956.637 311.954 956.538 312.546 956.427 313.128C956.339 313.689 956.251 314.27 956.162 314.872V314.841L956.063 317.49L956.262 320.293C956.328 320.709 956.427 321.176 956.56 321.695C956.715 322.194 956.902 322.703 957.123 323.222C957.344 323.741 957.598 324.24 957.885 324.717C958.195 325.174 958.526 325.569 958.879 325.901H958.846C959.266 326.234 959.763 326.608 960.337 327.023C960.912 327.418 961.552 327.843 962.259 328.3L962.193 328.238C962.59 328.404 963.054 328.487 963.584 328.487H963.618L963.386 328.3C962.657 327.553 962.16 326.618 961.895 325.496V324.219C962.005 323.43 962.303 322.755 962.789 322.194C963.275 321.612 963.916 321.124 964.711 320.73L966.732 320.169C967.041 320.169 967.34 320.21 967.627 320.293C967.914 320.356 968.168 320.439 968.389 320.543C968.588 320.626 968.775 320.698 968.952 320.761C969.151 320.802 969.339 320.865 969.515 320.948C969.869 321.093 970.211 321.322 970.543 321.633C970.874 321.924 971.172 322.277 971.437 322.692C971.702 323.087 971.912 323.523 972.067 324.001C972.243 324.479 972.332 324.967 972.332 325.465C972.332 326.005 972.254 326.556 972.1 327.116C971.967 327.656 971.724 328.186 971.371 328.705C971.04 329.225 970.587 329.723 970.012 330.201C969.438 330.658 968.72 331.084 967.859 331.478C967.262 331.665 966.699 331.8 966.169 331.883C965.661 331.966 965.197 332.008 964.777 332.008C963.629 332.008 962.48 331.862 961.331 331.572C960.205 331.281 959.244 330.803 958.449 330.138V330.17C957.101 329.11 955.919 327.864 954.903 326.431C953.887 324.998 953.059 323.367 952.418 321.54C951.932 320.127 951.579 318.746 951.358 317.396C951.137 316.046 951.027 314.665 951.027 313.252V311.259L951.259 308.455V308.486C951.259 307.468 951.899 305.619 953.18 302.94C954.395 300.51 956.151 297.997 958.449 295.401H947.415L942.445 290.727H969.317L973.856 295.058L968.621 297.083Z" fill="#322D2D"/>
<path d="M1027.27 295.401H1008.05V300.385C1008.43 300.344 1008.79 300.302 1009.14 300.261C1009.5 300.219 1009.86 300.178 1010.24 300.136C1010.7 300.136 1011.14 300.157 1011.56 300.198C1011.98 300.219 1012.35 300.25 1012.66 300.292C1013.38 300.417 1014.21 300.676 1015.14 301.071H1015.07C1015.63 301.237 1016.2 301.517 1016.8 301.912C1017.42 302.286 1018 302.722 1018.55 303.221C1019.13 303.719 1019.65 304.259 1020.11 304.841C1020.57 305.422 1020.95 305.973 1021.24 306.492C1021.83 307.613 1022.13 308.828 1022.13 310.137L1021.97 311.57C1021.97 312.152 1021.79 312.899 1021.44 313.813C1021.26 314.291 1021.02 314.737 1020.71 315.153C1020.4 315.568 1020 315.963 1019.51 316.337C1018.61 316.898 1017.64 317.178 1016.6 317.178L1014.84 317.022C1012.66 316.607 1011.19 315.766 1010.44 314.499C1010.13 313.876 1009.97 313.242 1009.97 312.598C1009.97 311.601 1010.4 310.708 1011.26 309.919L1013.05 308.86C1014.58 308.86 1015.83 309.015 1016.8 309.327L1016.76 309.296C1017.23 309.42 1017.7 309.753 1018.19 310.293C1018.23 310.127 1018.28 309.96 1018.32 309.794C1018.37 309.607 1018.41 309.441 1018.45 309.296C1018.43 308.839 1018.08 308.216 1017.39 307.426L1017.46 307.489C1017.28 307.385 1017.01 307.229 1016.63 307.021C1016.28 306.814 1015.85 306.585 1015.34 306.336C1014.85 306.232 1014.37 306.118 1013.88 305.993C1013.42 305.869 1012.94 305.754 1012.46 305.651L1010.07 305.744C1009.76 305.744 1009.45 305.765 1009.14 305.806C1008.86 305.827 1008.55 305.889 1008.22 305.993V333.815L1005.53 330.637L1003.74 325.839V325.87L1002.48 323.284L1000.86 320.792H1000.89C1000.65 320.439 1000.33 320.086 999.932 319.733C999.557 319.359 999.159 319.016 998.739 318.705C998.364 318.518 997.999 318.331 997.646 318.144C997.293 317.936 996.906 317.718 996.486 317.49C996.265 318.092 995.912 318.58 995.426 318.954C995.183 319.224 994.885 319.473 994.531 319.702C994.178 319.909 993.747 320.127 993.239 320.356L990.82 320.854C989.561 320.854 988.225 320.356 986.811 319.359C985.773 318.383 985.254 317.147 985.254 315.651C985.254 315.257 985.309 314.841 985.42 314.405C985.53 313.969 985.74 313.522 986.049 313.066C986.336 312.692 986.657 312.339 987.01 312.006C987.364 311.674 987.816 311.362 988.369 311.072C989.385 310.594 990.456 310.355 991.583 310.355L992.046 310.386L992.312 309.42V308.891C992.312 308.413 992.212 307.915 992.013 307.395C991.814 306.855 991.527 306.336 991.152 305.838C990.114 304.612 988.888 303.999 987.474 303.999C987.01 303.999 986.491 304.207 985.917 304.622C985.895 305.163 985.707 305.754 985.353 306.398C984.978 307.333 984.415 308.07 983.664 308.61C982.935 309.13 982.117 309.462 981.212 309.607C978.936 309.607 977.313 308.828 976.341 307.271C975.678 306.294 975.347 305.204 975.347 303.999C975.347 302.878 975.612 301.86 976.142 300.946C976.672 300.012 977.445 299.337 978.462 298.921H979.886C980.019 298.921 980.096 298.911 980.118 298.89C980.162 298.599 980.052 298.225 979.787 297.768C979.522 297.311 979.135 296.844 978.627 296.366H978.66L977.898 295.712C977.81 295.671 977.733 295.629 977.666 295.588C977.622 295.525 977.556 295.463 977.467 295.401H972.1L967.461 290.727H1022.23L1027.27 295.401ZM1003.31 318.455V306.336H1002.22C1001.91 306.294 1001.62 306.253 1001.36 306.211C1001.09 306.17 1000.87 306.108 1000.69 306.024C1000.23 305.921 999.767 305.765 999.303 305.557C998.861 305.349 998.419 305.111 997.977 304.841C997.138 304.384 996.365 303.844 995.658 303.221C994.973 302.577 994.344 301.829 993.769 300.977L993.803 301.008C993.184 300.282 992.665 299.461 992.245 298.547C991.848 297.633 991.527 296.584 991.284 295.401H982.736L983.398 296.771L984.127 298.205C985.144 298.371 986.149 298.682 987.143 299.139C988.159 299.596 989.241 300.209 990.39 300.977L990.357 300.946C992.632 302.234 994.819 304.851 996.917 308.797L997.547 310.604L997.812 312.723C998.298 313.034 998.817 313.429 999.369 313.907C999.943 314.364 1000.55 314.924 1001.19 315.589L1002.12 316.711L1002.15 316.773L1002.28 316.929C1002.42 317.095 1002.55 317.282 1002.68 317.49C1002.84 317.697 1003 317.936 1003.18 318.206L1003.31 318.455ZM1003.21 295.401H996.354C996.111 295.401 995.989 295.774 995.989 296.522C995.989 297.872 996.398 298.921 997.215 299.669L997.149 299.638C998.209 300.427 999.822 300.822 1001.99 300.822C1002.52 300.822 1002.93 300.77 1003.21 300.666V295.401Z" fill="#322D2D"/>
<path d="M1085.95 295.401H1085.15V334.344L1082.73 331.385L1082.27 330.045L1081.84 328.768L1081.21 326.556C1081.1 326.327 1080.99 326.109 1080.88 325.901C1080.77 325.673 1080.66 325.444 1080.55 325.216L1078.43 321.914L1076.64 319.39C1076.44 319.162 1076.21 318.912 1075.94 318.642C1075.7 318.351 1075.41 318.071 1075.08 317.801C1074.57 318.57 1073.95 319.297 1073.22 319.982C1072.52 320.647 1071.73 321.228 1070.87 321.727C1070.01 322.225 1069.08 322.62 1068.09 322.91C1067.12 323.201 1066.11 323.347 1065.07 323.347L1063.35 323.253C1062.89 323.253 1062.22 323.066 1061.36 322.692H1061.4C1059.08 321.945 1057.24 321.083 1055.9 320.107C1055.25 319.629 1054.43 318.819 1053.41 317.676C1052.42 316.513 1051.28 315.049 1050 313.284C1049.49 312.557 1048.9 311.508 1048.24 310.137C1047.6 308.766 1046.89 307.053 1046.12 304.996L1044.33 299.949C1044.09 299.285 1043.87 298.63 1043.67 297.986C1043.49 297.322 1043.35 296.719 1043.24 296.179L1046.75 297.457L1049.57 304.778C1049.74 305.214 1049.96 305.703 1050.23 306.243C1050.49 306.762 1050.85 307.333 1051.29 307.956L1051.26 307.925L1052.98 310.262C1054.24 311.383 1055.39 312.339 1056.43 313.128C1057.46 313.896 1058.44 314.488 1059.34 314.904L1059.31 314.872C1060.17 315.226 1061.09 315.506 1062.06 315.714C1063.05 315.901 1064.12 315.994 1065.27 315.994C1066.33 315.994 1067.25 315.859 1068.02 315.589C1068.8 315.298 1069.44 314.904 1069.94 314.405C1070.45 313.907 1070.83 313.315 1071.07 312.629C1071.31 311.944 1071.44 311.196 1071.44 310.386C1071.44 309.514 1071.34 308.673 1071.14 307.863C1070.96 307.053 1070.71 306.336 1070.38 305.713C1070.04 305.09 1069.66 304.591 1069.22 304.217C1068.8 303.844 1068.35 303.657 1067.89 303.657C1067.69 303.657 1067.35 303.979 1066.86 304.622C1066.18 305.516 1065.5 306.201 1064.84 306.679C1064.2 307.136 1063.58 307.364 1062.99 307.364C1061.04 307.364 1059.45 307.001 1058.21 306.274C1056.58 305.36 1055.76 304.031 1055.76 302.286C1055.76 301.87 1055.85 301.362 1056.03 300.759C1056.2 300.157 1056.44 299.513 1056.72 298.828C1056.92 298.454 1057.21 298.132 1057.59 297.862C1057.98 297.571 1058.42 297.332 1058.91 297.145C1059.4 296.938 1059.9 296.792 1060.43 296.709C1060.97 296.605 1061.47 296.553 1061.96 296.553C1065.27 296.553 1068.19 297.488 1070.71 299.357L1071.87 300.51L1073.32 302.068C1074.45 303.356 1075.28 304.83 1075.81 306.492C1076.34 308.133 1076.6 309.908 1076.6 311.819C1076.96 312.422 1077.28 312.962 1077.57 313.439C1077.87 313.896 1078.16 314.343 1078.43 314.779C1078.69 315.215 1078.97 315.672 1079.25 316.15C1079.54 316.607 1079.87 317.136 1080.25 317.739V295.401H1042.51L1037.64 290.727H1083.16L1085.52 290.821L1088.37 291.039C1089.78 291.226 1091.02 291.755 1092.08 292.628C1093.16 293.5 1094.04 294.653 1094.73 296.086L1094.96 296.553L1094.36 292.41L1094.03 287.892V286.21C1094.03 285.857 1093.99 285.452 1093.9 284.995C1093.81 284.517 1093.64 283.915 1093.37 283.188L1096.39 285.462L1096.75 287.55L1097.05 288.671L1097.41 289.45L1098.21 290.447L1098.54 290.727H1103.34L1108.21 295.401H1098.8V335.154L1094.03 330.357V302.224C1094.03 301.891 1094.02 301.611 1094 301.382C1093.98 301.133 1093.93 300.946 1093.87 300.822C1093.8 300.302 1093.69 299.866 1093.54 299.513C1093.38 299.16 1093.19 298.848 1092.97 298.578L1091.05 296.74C1090.37 296.221 1089.53 295.816 1088.53 295.525L1088.63 295.556L1085.95 295.401Z" fill="#322D2D"/>
<path d="M1142.81 295.401V334.157L1138.03 330.045V310.885L1137.7 309.732V309.763L1136.78 307.613L1136.34 306.554C1136.12 306.243 1135.89 305.91 1135.65 305.557C1135.43 305.204 1135.23 304.872 1135.05 304.56C1134.79 304.02 1134.5 303.657 1134.19 303.47L1133.56 303.034C1131.33 305.131 1129.1 307.24 1126.87 309.358C1124.64 311.477 1122.4 313.574 1120.14 315.651L1113.55 313.346L1117.52 309.389C1117.83 309.119 1117.99 308.548 1117.99 307.676C1117.99 307.302 1117.94 306.918 1117.86 306.523C1117.77 306.128 1117.62 305.775 1117.43 305.464C1117.25 305.152 1117.03 304.892 1116.76 304.685C1116.5 304.477 1116.2 304.373 1115.87 304.373C1115.49 304.373 1115.19 304.456 1114.97 304.622C1114.75 304.768 1114.32 304.934 1113.68 305.121C1113.04 305.308 1112.17 305.536 1111.06 305.806C1110.69 305.806 1109.91 305.578 1108.74 305.121C1107.66 304.456 1107.12 303.563 1107.12 302.442C1107.12 302.213 1107.18 301.933 1107.29 301.6C1107.42 301.247 1107.61 300.822 1107.85 300.323C1108.69 298.89 1109.56 297.665 1110.47 296.647C1111.37 295.629 1112.31 294.757 1113.28 294.03C1115.85 292.264 1119.04 291.382 1122.86 291.382C1124.65 291.382 1126.36 291.683 1127.99 292.285C1129.63 292.887 1131.16 293.77 1132.6 294.933C1134.74 296.699 1136.42 298.807 1137.64 301.258L1138.2 302.94V302.909L1138.56 303.844L1138.03 297.301V285.431L1140.29 286.802L1140.69 287.394C1140.69 288.495 1140.94 289.346 1141.45 289.948L1143.14 290.727H1145.85L1150.39 295.401H1142.81ZM1120.8 303.906C1120.96 304.155 1121.08 304.456 1121.17 304.809C1121.28 305.163 1121.38 305.568 1121.47 306.024L1129.55 298.454C1129.42 298.308 1129.23 298.153 1128.99 297.986L1129.02 298.018L1127.7 297.176C1126.92 296.574 1125.79 296.273 1124.28 296.273C1122.85 296.273 1121.59 296.439 1120.51 296.771C1119.42 297.083 1118.45 297.613 1117.59 298.36H1117.62C1117.2 298.755 1116.72 299.357 1116.17 300.167C1116.74 300.23 1117.23 300.354 1117.62 300.541C1118.07 300.624 1118.44 300.79 1118.75 301.04C1119.08 301.268 1119.37 301.528 1119.61 301.819C1119.86 302.089 1120.06 302.4 1120.24 302.753C1120.44 303.086 1120.64 303.48 1120.84 303.937L1120.8 303.906Z" fill="#322D2D"/>
<path d="M1182.14 295.401V334.251L1177.33 329.11L1177.36 312.91L1176.7 311.165C1176.41 310.791 1176.13 310.397 1175.84 309.981C1175.55 309.545 1175.27 309.13 1174.98 308.735V308.766C1174.4 308.143 1173.73 307.831 1172.96 307.831C1172.58 307.831 1172.24 307.873 1171.93 307.956C1171.64 308.018 1171.36 308.143 1171.07 308.33C1170.78 308.517 1170.48 308.766 1170.17 309.078C1169.89 309.389 1169.57 309.784 1169.21 310.262L1163.68 317.552C1162.51 318.964 1161.57 319.712 1160.86 319.795L1159.27 319.888H1158.31C1158.07 319.888 1157.84 319.868 1157.62 319.826C1157.42 319.785 1157.22 319.733 1157.02 319.67L1155.96 319.234C1155.54 319.172 1155.12 318.964 1154.7 318.611C1154.3 318.237 1153.82 317.749 1153.24 317.147L1151.29 314.312L1150.43 312.91L1149.57 311.227L1153.24 307.894C1153.24 308.496 1153.3 309.047 1153.41 309.545C1153.54 310.043 1153.75 310.542 1154.04 311.04L1154.01 311.009L1155.33 312.879C1155.46 312.982 1155.64 313.097 1155.86 313.221C1156.1 313.346 1156.36 313.429 1156.62 313.471C1157.11 313.429 1157.65 313.149 1158.25 312.629L1158.21 312.692L1159.94 310.542L1163.25 306.336L1162.95 304.311C1162.95 304.082 1162.94 303.864 1162.92 303.657C1162.9 303.428 1162.83 303.231 1162.72 303.065C1162.48 302.442 1162.16 301.85 1161.76 301.289C1161.38 300.728 1160.94 300.23 1160.43 299.793C1160.12 299.669 1159.79 299.534 1159.44 299.388C1159.11 299.243 1158.79 299.118 1158.48 299.015H1158.54C1157.9 298.848 1157.38 298.755 1156.99 298.734C1156.59 298.693 1156.26 298.672 1155.99 298.672C1154.93 298.672 1154.08 298.641 1153.44 298.578C1152.8 298.516 1152.26 298.423 1151.82 298.298C1151.4 298.153 1151.03 297.986 1150.72 297.8C1150.44 297.592 1150.12 297.363 1149.76 297.114L1148.5 295.401L1147.44 294.84L1143 290.727H1187.01L1191.94 295.401H1182.14ZM1177.33 295.401H1162.02C1162.2 295.567 1162.39 295.733 1162.59 295.899C1162.81 296.044 1163.01 296.179 1163.18 296.304C1163.56 296.636 1163.93 297.041 1164.31 297.519C1164.71 297.997 1165.07 298.61 1165.4 299.357C1165.96 300.853 1166.23 302.089 1166.23 303.065V303.532H1166.26V303.501L1166.93 303.096L1166.86 303.158C1168.05 302.224 1169.01 301.642 1169.74 301.414L1170.9 301.351C1171.35 301.351 1171.72 301.372 1172.03 301.414C1172.36 301.455 1172.66 301.538 1172.92 301.663C1173.19 301.787 1173.45 301.954 1173.72 302.161C1174.01 302.369 1174.33 302.639 1174.68 302.971L1177.36 305.9L1177.33 295.401Z" fill="#322D2D"/>
<path d="M1225.18 337.366L1222.06 334.594L1222.1 334.625L1218.55 331.914C1218.15 331.644 1217.69 331.343 1217.16 331.011C1216.65 330.699 1216.08 330.346 1215.44 329.952L1210.9 327.366C1210.39 327.075 1209.85 326.794 1209.27 326.524C1208.7 326.254 1208.13 325.984 1207.58 325.714L1203.84 324.094H1203.87C1202.92 323.762 1201.75 323.409 1200.36 323.035C1198.99 322.661 1197.41 322.287 1195.62 321.914L1190.62 310.448L1194.56 312.536C1195.07 312.702 1195.59 312.889 1196.12 313.097C1196.67 313.304 1197.2 313.491 1197.71 313.657H1197.68C1198.6 313.886 1199.56 314.073 1200.56 314.218C1201.55 314.364 1202.49 314.436 1203.37 314.436H1205.16L1207.75 313.938C1208.08 313.855 1208.39 313.761 1208.68 313.657C1208.99 313.533 1209.26 313.387 1209.5 313.221C1211.07 312.598 1212.17 311.996 1212.78 311.414L1214.44 310.199C1214.82 309.825 1215.12 309.42 1215.34 308.984C1215.56 308.548 1215.67 308.112 1215.67 307.676C1215.67 307.26 1215.57 306.824 1215.37 306.367C1215.19 305.889 1214.88 305.339 1214.44 304.716L1214.47 304.747C1214.28 304.477 1213.97 304.217 1213.55 303.968C1213.15 303.719 1212.7 303.501 1212.19 303.314C1211.68 303.106 1211.14 302.94 1210.56 302.815C1210.01 302.691 1209.49 302.629 1209.01 302.629C1208.48 302.629 1208.09 302.67 1207.85 302.753C1207.83 304.062 1207.32 305.308 1206.32 306.492L1204.24 308.361L1203.57 308.828C1203.26 309.119 1202.81 309.379 1202.21 309.607C1201.62 309.815 1200.79 309.919 1199.73 309.919C1198.45 309.919 1197.38 309.597 1196.52 308.953C1195.65 308.288 1195.04 307.302 1194.66 305.993L1194.59 304.934L1194.79 303.812C1194.86 303.439 1195.04 303.044 1195.32 302.629C1195.61 302.213 1195.97 301.767 1196.42 301.289C1197.39 300.126 1198.87 299.181 1200.86 298.454L1203.77 297.519L1203.51 297.239C1203.13 296.761 1202.7 296.366 1202.21 296.055C1201.73 295.743 1201.23 295.525 1200.72 295.401H1189.23L1184.22 290.727H1221.33L1226.17 295.401H1207.12L1207.58 296.678V296.647C1207.74 297.041 1207.95 297.301 1208.21 297.426L1208.74 297.55C1208.92 297.571 1209.21 297.644 1209.6 297.768C1210.02 297.893 1210.59 298.07 1211.29 298.298L1212.22 298.578C1214.28 299.326 1216.11 300.77 1217.72 302.909C1218.52 304.01 1219.1 305.038 1219.48 305.993C1219.85 306.949 1220.04 307.987 1220.04 309.109C1220.04 309.96 1219.99 310.5 1219.88 310.729C1219.37 312.93 1218.32 314.779 1216.73 316.274C1215.95 316.981 1214.96 317.676 1213.75 318.362C1212.53 319.027 1211.01 319.722 1209.17 320.449L1209.21 320.512C1209.85 320.823 1210.5 321.155 1211.16 321.509C1211.82 321.862 1212.48 322.204 1213.12 322.537L1216.6 324.811C1217.46 325.413 1218.23 326.005 1218.91 326.587C1219.6 327.168 1220.23 327.74 1220.8 328.3L1226.24 333.659L1227.1 339.423L1225.18 337.366Z" fill="#322D2D"/>
<path d="M1218.32 290.727H1227.99C1227.86 290.353 1227.72 289.99 1227.56 289.637C1227.43 289.284 1227.31 288.91 1227.2 288.515C1227.07 288.162 1226.91 287.768 1226.73 287.331C1226.58 286.895 1226.35 286.438 1226.04 285.961L1225.14 284.465C1225.01 283.987 1224.76 283.572 1224.38 283.219C1223.1 281.474 1221.6 280.197 1219.88 279.387L1219.91 279.418C1219.16 279.106 1218.32 278.785 1217.39 278.452C1216.44 278.099 1215.35 277.746 1214.11 277.393L1214.14 277.424L1210.5 276.801H1210.56L1206.62 276.521L1204.73 276.645H1202.91C1202.56 276.645 1202.24 276.656 1201.95 276.676C1201.66 276.697 1201.39 276.739 1201.12 276.801C1200.86 276.843 1200.59 276.915 1200.33 277.019C1200.06 277.102 1199.76 277.216 1199.43 277.362C1199.19 277.403 1198.96 277.476 1198.74 277.58C1198.52 277.663 1198.28 277.767 1198.04 277.891H1198.07L1196.18 278.982L1195.89 279.262L1195.72 279.761C1195.79 279.948 1196.07 280.145 1196.58 280.353L1196.55 280.322L1198.84 280.913C1199.65 280.955 1200.45 280.997 1201.22 281.038C1201.99 281.08 1202.77 281.121 1203.54 281.163C1206.35 281.163 1208.55 281.36 1210.17 281.755L1210.13 281.724C1210.71 281.827 1211.25 281.942 1211.76 282.066C1212.27 282.191 1212.81 282.305 1213.38 282.409C1214.62 282.783 1215.67 283.437 1216.53 284.372L1218.15 286.615L1218.45 288.453L1218.38 290.073L1218.32 290.727ZM1243.23 295.401H1232.53V334.064L1227.69 329.64V295.401H1221.43L1218.22 291.569L1218.12 292.129H1212.22L1214.38 290.229L1214.31 290.322C1214.42 290.177 1214.52 289.99 1214.61 289.762C1214.7 289.533 1214.78 289.273 1214.87 288.983C1214.85 288.173 1214.11 287.529 1212.65 287.051L1208.48 286.739H1206.32C1205.09 286.739 1204.03 286.719 1203.14 286.677C1202.24 286.636 1201.43 286.521 1200.72 286.334L1200.79 286.366C1200.04 286.283 1199.26 286.044 1198.44 285.649C1197.62 285.254 1196.75 284.777 1195.82 284.216H1195.85C1194.95 283.738 1194.23 283.084 1193.7 282.253C1193.17 281.422 1192.9 280.508 1192.9 279.512C1192.9 277.891 1193.4 276.718 1194.4 275.991L1194.36 276.022L1196.68 273.997C1197.52 273.582 1198.66 273.197 1200.09 272.844C1201.51 272.491 1203.24 272.18 1205.3 271.91L1206.75 271.816L1207.75 271.754H1209.01C1209.29 271.754 1209.57 271.764 1209.84 271.785C1210.08 271.785 1210.33 271.806 1210.6 271.847C1210.86 271.868 1211.16 271.92 1211.49 272.003C1211.8 272.086 1212.18 272.19 1212.62 272.315V272.284C1213.52 272.512 1214.44 272.74 1215.37 272.969C1216.27 273.197 1217.18 273.426 1218.09 273.654C1218.64 273.8 1219.16 273.997 1219.64 274.246L1219.61 274.215L1221.3 275.025L1224.55 277.362C1225.32 277.923 1226.1 278.66 1226.9 279.574C1227.69 280.488 1228.45 281.547 1229.15 282.752C1229.37 283.105 1229.59 283.489 1229.82 283.904C1230.04 284.299 1230.22 284.673 1230.38 285.026L1231.54 287.612L1232.43 290.727H1238.43L1243.23 295.401Z" fill="#322D2D"/>
<path d="M1270.64 295.401V335.123L1268.15 332.039L1268.25 330.793C1268.25 328.84 1267.75 326.4 1266.76 323.471C1266.32 322.121 1265.8 320.719 1265.2 319.265C1264.61 317.811 1264.02 316.472 1263.45 315.246C1263.25 314.914 1263.02 314.571 1262.75 314.218C1262.51 313.844 1262.22 313.481 1261.89 313.128L1259.44 310.885C1258.42 310.158 1257.41 309.566 1256.39 309.109C1255.37 308.631 1254.45 308.361 1253.61 308.299C1253.61 308.34 1253.58 308.382 1253.54 308.423C1254.98 310.251 1255.69 311.83 1255.69 313.159C1255.69 313.554 1255.68 313.876 1255.66 314.125C1255.64 314.353 1255.59 314.551 1255.53 314.717C1255.53 314.883 1255.48 315.08 1255.39 315.309C1255.31 315.537 1255.17 315.818 1255 316.15C1254.05 317.915 1252.31 318.798 1249.8 318.798L1247.67 318.549C1246.95 318.445 1246.26 318.279 1245.62 318.05C1245 317.801 1244.44 317.5 1243.93 317.147C1243.11 316.316 1242.45 314.945 1241.94 313.034L1241.78 311.352C1241.78 310.043 1242.04 308.839 1242.57 307.738C1243.1 306.616 1243.82 305.661 1244.73 304.872C1245.65 304.062 1246.72 303.439 1247.94 303.002C1249.18 302.545 1250.49 302.317 1251.88 302.317L1253.51 302.379C1253.99 302.379 1254.7 302.556 1255.63 302.909C1256.07 302.992 1256.58 303.2 1257.15 303.532C1257.75 303.844 1258.32 304.186 1258.87 304.56C1259.65 305.1 1260.44 305.786 1261.26 306.616C1262.08 307.447 1262.84 308.371 1263.55 309.389C1264.01 310.075 1264.43 310.698 1264.8 311.259C1265.18 311.819 1265.49 312.318 1265.73 312.754V295.401H1239.06L1234.19 290.727H1274.25L1279.35 295.401H1270.64Z" fill="#322D2D"/>
</svg>
