<svg width="520" height="330" viewBox="0 0 520 330" fill="none" xmlns="http://www.w3.org/2000/svg">
<rect width="520" height="330" fill="#D9D9D9"/>
<path d="M156 144C154.318 140.61 151.739 138.914 148.262 138.914C146.667 138.943 144.899 139.273 142.957 139.903C141.879 140.291 140.75 140.501 139.609 140.527C137.871 140.527 136.524 140.002 135.567 138.952C134.582 137.849 133.893 136.499 133.567 135.035C133.194 133.505 133.004 131.933 133.002 130.354C132.981 128.826 133.126 127.3 133.437 125.806L134.436 126.527L134.392 127.922C134.39 128.922 134.5 129.919 134.718 130.893C134.901 131.786 135.315 132.611 135.915 133.279C136.493 133.91 137.348 134.225 138.48 134.225C139.063 134.188 139.644 134.113 140.218 134.001C141.469 133.674 142.754 133.507 144.044 133.505C145.783 133.505 147.058 134.03 147.87 135.081V122.122C147.697 121.398 147.233 121.035 146.478 121.035C145.812 121.035 145.059 121.268 144.218 121.734C143.394 122.185 142.693 122.843 142.179 123.647C142.784 123.805 143.311 124.19 143.656 124.727C144.001 125.26 144.183 125.888 144.177 126.529C144.172 127.125 144.03 127.711 143.765 128.239C143.47 128.831 143.027 129.329 142.481 129.68C141.862 130.106 141.138 130.341 140.395 130.356C139.349 130.356 138.422 129.95 137.612 129.139C137.214 128.745 136.9 128.27 136.691 127.743C136.481 127.215 136.381 126.649 136.397 126.079C136.397 125.239 136.642 124.338 137.134 123.378C138.437 121.098 140.316 119.23 142.569 117.975C144.886 116.658 147.131 116 149.305 116C151.159 116 152.739 116.533 154.044 117.598C155.349 118.664 156.001 120.382 156 122.754V144Z" fill="#ED1C24" fill-opacity="0.5"/>
<path d="M197 123.007C197 123.007 197 123.459 197 124C197 123.248 197 122.947 197 123.007Z" fill="#ED1C24" fill-opacity="0.5"/>
<path d="M224.056 132.957C224.63 132.043 224.939 130.992 224.952 129.917C224.953 128.861 224.642 127.826 224.056 126.941C223.438 125.992 222.572 125.223 221.55 124.715H228C227.963 123.761 227.927 122.796 227.89 121.838L205.889 121.931V121.883H202.946C201.785 120.929 200.628 119.975 199.466 119.021C198.48 118.012 197.497 117.005 196.516 116L194.883 116.021C194.859 116.909 194.839 117.802 194.822 118.7C194.801 119.759 194.792 120.811 194.784 121.861C194.173 121.861 193.562 121.861 192.951 121.861C192.951 121.845 192.951 121.826 192.951 121.81L158 121.883C158 122.824 158 123.77 158 124.712H173.103V125.418L160.555 128.987V140.885L162.172 140.709C163.542 140.578 164.919 140.519 166.295 140.532C171.376 140.532 175.784 141.311 179.518 142.868C180.163 143.142 180.791 143.451 181.4 143.795L181.489 143.882V132.253C182.3 132.112 183.122 132.038 183.945 132.032C186.455 132.121 187.71 132.709 187.71 133.795C187.708 134.008 187.662 134.218 187.576 134.412C187.323 134.161 187.023 133.962 186.692 133.826C186.362 133.689 186.007 133.618 185.648 133.617C184.865 133.618 184.106 133.882 183.497 134.366C182.718 134.983 182.287 135.835 182.204 136.923C182.193 137.408 182.297 137.889 182.507 138.328C182.717 138.767 183.027 139.152 183.413 139.454C184.187 140.104 185.175 140.457 186.193 140.448C187.716 140.448 188.986 139.759 190.003 138.381C191.019 137.003 191.526 135.637 191.521 134.285C191.521 132.165 190.551 130.277 188.611 128.62C186.67 126.963 184.294 125.868 181.481 125.333V124.716H194.838V142.036L203.219 143.887V124.716H213.841C212.734 125.186 211.913 125.825 211.377 126.632C210.862 127.365 210.58 128.233 210.568 129.124C210.562 129.958 210.837 130.771 211.349 131.436C211.872 132.129 212.63 132.588 213.613 132.825C213.909 132.885 214.209 132.914 214.511 132.913C214.983 132.925 215.453 132.839 215.889 132.661C216.325 132.482 216.718 132.215 217.041 131.876C217.712 131.186 218.048 130.444 218.05 129.65C218.047 129.229 217.923 128.817 217.693 128.461H218.05C219.004 128.461 219.803 128.71 220.447 129.21C221.09 129.709 221.414 130.282 221.417 130.928C221.412 131.235 221.336 131.537 221.194 131.811L220.655 131.766C219.914 131.759 219.185 131.957 218.553 132.339C217.657 132.869 217.21 133.721 217.21 134.895C217.21 135.748 217.491 136.414 218.06 136.899C218.559 137.355 219.211 137.613 219.892 137.624C220.667 137.624 221.295 137.227 221.774 136.435H221.946C222.876 136.522 223.335 136.788 223.335 137.23C223.335 137.642 222.978 138.074 222.264 138.527C221.551 138.98 220.521 139.209 219.174 139.214C217.171 139.206 215.207 138.674 213.482 137.672C210.464 135.969 208.685 132.238 208.146 126.478L206.529 127.799C206.529 130.032 206.939 132.55 207.76 135.355C208.58 138.16 209.843 140.584 211.548 142.628C213.253 144.671 215.389 145.795 217.958 146H218.443C220.232 146 221.698 145.544 222.832 144.634C223.935 143.765 224.818 142.655 225.411 141.394C225.97 140.243 226.282 138.991 226.328 137.716C226.338 135.63 225.58 134.044 224.056 132.957ZM168.745 137.017C167.045 136.65 165.311 136.46 163.571 136.45C164.45 134.724 165.751 133.239 167.357 132.129C168.964 131.019 170.825 130.319 172.775 130.091C172.917 132.871 173.061 135.651 173.207 138.432C171.769 137.821 170.275 137.347 168.745 137.017ZM197.205 123.53C197.205 123.53 197.226 123.543 197.25 123.583C197.205 123.554 197.205 123.535 197.205 123.53Z" fill="#ED1C24" fill-opacity="0.5"/>
<path d="M250.401 144.613C250.371 144.584 250.35 144.569 250.335 144.569C250.321 144.569 250.313 144.554 250.313 144.523C249.695 144.164 249.055 143.847 248.396 143.573C244.681 141.975 240.298 141.177 235.247 141.177C233.878 141.163 232.509 141.223 231.146 141.358L229.538 141.539V129.336L242.063 125.675V124.95H227L227.018 122L253 122.145L252.94 124.95H250.401V144.613ZM242.066 138.148V131.476C240.3 131.735 238.608 132.369 237.1 133.335C235.592 134.301 234.301 135.579 233.312 137.085C236.272 136.718 239.275 137.083 242.066 138.148ZM240.506 148.999C240.127 148.995 239.752 148.934 239.391 148.818C238.622 148.593 237.953 148.106 237.497 147.44C237.081 146.836 236.857 146.119 236.854 145.383C236.856 144.831 237.01 144.29 237.299 143.822C237.622 143.301 238.086 142.886 238.635 142.625C239.263 142.321 239.946 142.152 240.641 142.128C241.741 142.128 242.566 142.542 243.116 143.37C243.666 144.199 243.94 145.02 243.939 145.835C243.939 146.587 243.618 147.303 242.96 147.981C242.643 148.314 242.261 148.577 241.838 148.752C241.416 148.927 240.962 149.011 240.506 148.999Z" fill="#ED1C24" fill-opacity="0.5"/>
<path d="M283.587 145L283.497 144.911C283.283 144.642 282.797 144.192 282.04 143.566C279.918 141.8 277.9 140.917 275.987 140.917C275.045 140.947 274.302 141.127 273.756 141.456C272.755 141.965 271.578 142.488 270.227 143.027C268.891 143.563 267.461 143.838 266.018 143.836C262.438 143.836 259.873 141.473 258.325 136.747C257.901 135.432 257.673 134.549 257.642 134.099L258.007 133.471L258.233 134.099C258.664 135.213 259.331 136.223 260.191 137.061C260.772 137.601 261.529 137.919 262.326 137.958C263.114 137.958 264.313 137.644 265.921 137.016C267.236 136.466 268.638 136.147 270.064 136.074C271.62 136.054 273.155 136.425 274.525 137.15C275.697 137.755 276.784 138.509 277.755 139.394L278.348 139.753V139.708C277.649 138.81 276.928 137.893 276.185 136.956C275.459 136.055 275.068 134.934 275.08 133.783V129.163L266.75 135.444L262.878 130.867L265.062 129.477V129.163C265.062 128.564 264.88 128.132 264.515 127.868C264.148 127.598 263.699 127.456 263.241 127.465C262.642 127.471 262.064 127.676 261.598 128.047L257 122.22L257.865 121.41C258.639 120.773 259.446 120.176 260.283 119.621C261.359 118.909 262.501 118.301 263.696 117.805C264.946 117.271 266.294 116.995 267.657 116.996C270.569 116.996 273.042 118.491 275.075 121.481C275.115 119.661 275.153 117.84 275.19 116.018L276.852 116C277.851 117.025 278.849 118.051 279.846 119.076L283.425 122.027H288C287.961 123.099 287.92 124.17 287.878 125.242L283.587 125.339V145ZM268.478 127.278L273.347 124.227L273.257 124.093L272.87 123.845C272.665 123.725 272.443 123.634 272.213 123.576C271.87 123.494 271.519 123.456 271.166 123.464C269.83 123.464 268.176 123.988 266.205 125.035C266.993 125.423 267.554 125.834 267.888 126.268C268.222 126.702 268.418 127.039 268.476 127.278H268.478Z" fill="#006838" fill-opacity="0.5"/>
<path d="M331.389 145L323.121 143.45C323.133 137.43 323.145 131.411 323.158 125.392L320 125.331C320.137 124.215 320.275 123.099 320.413 121.984L325.998 122.028L324.035 120.143L325.241 118.8C325.747 118.316 326.283 117.868 326.846 117.457C327.97 116.64 329.185 115.964 330.465 115.443C334.093 114.095 339.207 116.234 339.719 116.451L340.925 117.122C341.899 117.841 342.72 118.755 343.338 119.808C343.613 120.287 343.835 120.796 344 121.325L343.513 120.846C343.099 120.43 342.639 120.064 342.143 119.755C341.428 119.305 340.662 118.945 339.863 118.684C338.853 118.362 337.802 118.197 336.745 118.195C333.472 118.195 330.79 119.475 328.697 122.036L334.087 121.992L334.077 125.351H331.316C331.338 131.899 331.362 138.449 331.389 145Z" fill="#006838" fill-opacity="0.5"/>
<path d="M298.381 145L290.11 143.45C290.279 137.389 290.449 131.329 290.619 125.271H287C287.195 124.189 287.391 123.108 287.588 122.028H292.984L291.02 120.143L292.227 118.8C292.733 118.316 293.269 117.868 293.833 117.457C294.957 116.64 296.173 115.964 297.454 115.443C301.085 114.095 306.202 116.234 306.715 116.451L307.922 117.122C308.896 117.841 309.717 118.755 310.336 119.808C310.611 120.287 310.834 120.796 311 121.325L310.521 120.846C310.106 120.43 309.646 120.064 309.15 119.755C308.435 119.305 307.669 118.945 306.87 118.684C305.86 118.362 304.808 118.197 303.75 118.195C300.476 118.195 297.791 119.475 295.697 122.036H300.919L301.092 125.279L298.253 125.682C298.297 132.121 298.34 138.56 298.381 145Z" fill="#006838" fill-opacity="0.5"/>
<path d="M311.103 144H310.687C308.487 143.861 306.403 142.972 304.796 141.485C303.136 139.943 301.813 138.084 300.906 136.022C299.972 133.978 299.284 131.833 298.857 129.631L300.468 126.412L301.021 127.863C302.064 130.643 303.599 132.895 305.625 134.617C306.914 135.708 308.525 136.267 310.458 136.294C311.715 136.294 312.689 136.09 313.381 135.682C314.013 135.337 314.52 134.806 314.831 134.164C315.095 133.611 315.236 133.008 315.245 132.397C315.254 131.974 315.192 131.553 315.061 131.15C314.986 130.874 314.825 130.628 314.601 130.447V130.583C314.601 131.309 314.194 132.087 313.381 132.918C313.003 133.319 312.543 133.637 312.031 133.852C311.519 134.067 310.968 134.173 310.412 134.164C309.806 134.152 309.21 134.013 308.663 133.756C307.821 133.397 307.097 132.817 306.568 132.079C306.106 131.428 305.857 130.653 305.854 129.858C305.854 128.589 306.514 127.395 307.834 126.277C308.381 125.857 309.007 125.549 309.676 125.371H297.154L297 122H320.854C320.903 123.124 320.951 124.248 321 125.371H313.028C314.158 125.656 315.211 126.182 316.112 126.911C317.099 127.711 317.893 128.716 318.437 129.855C319.037 131.064 319.337 132.484 319.336 134.115L319.289 134.977C319.227 135.883 319.034 136.776 318.715 137.628C318.341 138.679 317.831 139.677 317.195 140.597C316.535 141.565 315.682 142.39 314.687 143.022C313.678 143.675 312.483 144.001 311.103 144Z" fill="#006838" fill-opacity="0.5"/>
<path d="M352.767 146C352.257 145.243 351.739 144.153 351.215 142.729C350.692 141.305 350.429 139.553 350.428 137.471V137.108L349.212 137.926C348.203 138.625 347.233 139.382 346.309 140.193C345.13 141.216 344.038 142.338 343.046 143.547L334.588 141.643V125.371H332.023C332.015 124.248 332.008 123.124 332 122H359L358.93 125.371H343.046V132.622C345.87 130.229 348.896 128.091 352.09 126.231L357.265 132.622L356.411 133.62C355.839 134.315 355.262 135.297 354.678 136.564C353.824 138.413 353.808 140.467 353.8 141.143C353.785 142.606 354.01 144.061 354.464 145.45L352.767 146Z" fill="#006838" fill-opacity="0.5"/>
<path d="M382.389 145L381.316 143.33C379.198 140.169 376.766 137.61 374.022 135.653C371.994 134.299 370.07 133.621 368.25 133.621C366.967 133.621 365.975 133.809 365.275 134.185C364.574 134.561 364.082 135.028 363.797 135.586C363.527 136.093 363.381 136.658 363.373 137.233C363.368 137.595 363.428 137.955 363.552 138.294C363.672 138.61 363.821 138.813 363.999 138.903V138.768C363.999 138.137 364.372 137.445 365.118 136.691C365.466 136.328 365.883 136.041 366.345 135.847C366.807 135.653 367.303 135.557 367.803 135.563C368.36 135.567 368.91 135.69 369.417 135.923C370.177 136.253 370.834 136.784 371.319 137.46C371.733 138.038 371.959 138.732 371.965 139.446C371.965 140.591 371.369 141.677 370.176 142.704C369.238 143.392 368.106 143.756 366.947 143.742C365.752 143.725 364.581 143.399 363.547 142.794C362.379 142.129 361.406 141.163 360.728 139.995C359.983 138.76 359.61 137.27 359.61 135.524L359.655 134.803C359.778 132.859 360.498 131.002 361.713 129.49C362.967 127.88 364.921 126.924 367.575 126.622L368.158 126.577C370.305 126.577 372.259 127.329 374.019 128.835V125.358H358C358.05 124.239 358.1 123.12 358.152 122H385L384.937 125.358H382.386L382.389 145Z" fill="#006838" fill-opacity="0.5"/>
<path d="M271 150L270.382 151.044H269.919V157.727L270.953 157.055L269.919 159H268.621V154.823L268.391 154.392L268.128 154.034C268.074 153.953 268.012 153.876 267.943 153.806L267.635 153.491C267.542 153.386 267.409 153.319 267.263 153.305C267.144 153.317 267.033 153.371 266.955 153.455C266.822 153.577 266.701 153.709 266.593 153.849C266.463 154.012 266.335 154.188 266.207 154.379C266.079 154.57 265.954 154.755 265.837 154.937C265.72 155.119 265.608 155.28 265.504 155.423C265.429 155.532 265.346 155.637 265.258 155.737C265.128 155.867 264.98 155.98 264.818 156.074C264.65 156.174 264.454 156.227 264.255 156.225C264.099 156.212 263.948 156.166 263.815 156.089C263.612 155.983 263.424 155.855 263.252 155.709C263.041 155.531 262.852 155.332 262.689 155.116C262.507 154.878 262.369 154.615 262.28 154.335L263.437 153.834C263.47 153.944 263.511 154.052 263.56 154.156C263.606 154.26 263.661 154.361 263.723 154.457C263.777 154.54 263.842 154.616 263.914 154.686C263.94 154.714 263.972 154.736 264.008 154.752C264.044 154.768 264.084 154.778 264.123 154.779C264.277 154.779 264.478 154.617 264.725 154.293C264.884 154.097 265.014 153.883 265.112 153.655C265.163 153.505 265.188 153.348 265.188 153.191C265.193 153.061 265.169 152.932 265.118 152.811C265.077 152.719 265.023 152.632 264.956 152.554C264.897 152.485 264.83 152.423 264.756 152.368C264.683 152.315 264.617 152.265 264.555 152.217C264.338 152.036 264.06 151.929 263.768 151.916C263.535 151.921 263.306 151.98 263.104 152.089L263.09 151.044H261L261.787 150H271ZM268.67 152.947V151.044H264.674C264.9 151.111 265.115 151.208 265.313 151.33C265.482 151.435 265.637 151.558 265.777 151.695C265.894 151.815 266.003 151.941 266.101 152.074C266.194 152.199 266.272 152.314 266.333 152.417L266.687 152.132C266.831 152.023 267.012 151.967 267.197 151.974C267.351 151.989 267.502 152.025 267.644 152.082C267.893 152.206 268.114 152.373 268.294 152.575L268.67 152.947Z" fill="#27292D" fill-opacity="0.5"/>
<path d="M274.805 158.108C274.697 158.364 274.52 158.584 274.295 158.74C274.034 158.919 273.726 159.01 273.414 158.999C272.988 159.011 272.572 158.869 272.239 158.597C271.905 158.319 271.632 157.973 271.435 157.581C271.223 157.164 271.068 156.718 270.975 156.256C270.882 155.824 270.833 155.382 270.828 154.939C270.814 154.192 270.946 153.449 271.219 152.757C271.496 152.105 271.907 151.523 272.424 151.051H270L270.571 150H275L274.442 151.051C274.22 151.143 274.009 151.261 273.813 151.403C273.572 151.578 273.351 151.781 273.157 152.009C272.924 152.286 272.72 152.588 272.548 152.909C272.342 153.3 272.176 153.713 272.053 154.14C272.013 154.256 271.99 154.377 271.983 154.5C271.974 154.635 271.968 154.783 271.968 154.947C271.966 155.32 272.006 155.693 272.087 156.056C272.155 156.371 272.261 156.676 272.402 156.965C272.515 157.2 272.671 157.411 272.863 157.584C273.015 157.728 273.214 157.81 273.421 157.814C273.488 157.82 273.556 157.811 273.619 157.786C273.683 157.761 273.739 157.721 273.785 157.67C273.874 157.544 273.94 157.402 273.981 157.252L274.805 158.108Z" fill="#27292D" fill-opacity="0.5"/>
<path d="M284 150L283.385 151.115H274L274.746 150H284ZM282.975 156.722C282.768 157.431 282.318 158.035 281.711 158.419C281.095 158.807 280.264 159.001 279.215 159C278.779 158.988 278.35 158.879 277.957 158.679C277.488 158.45 277.058 158.143 276.685 157.77C276.299 157.396 275.966 156.966 275.697 156.494C275.46 156.097 275.299 155.656 275.222 155.195C275.252 155.111 275.299 155.036 275.36 154.973C275.454 154.856 275.558 154.729 275.675 154.591C275.792 154.453 275.911 154.324 276.034 154.202C276.118 154.113 276.208 154.032 276.305 153.958C276.291 154.043 276.286 154.13 276.289 154.216C276.296 154.649 276.41 155.073 276.618 155.447C276.838 155.859 277.117 156.233 277.446 156.555C277.762 156.87 278.115 157.14 278.498 157.358C278.81 157.55 279.162 157.657 279.523 157.672C279.855 157.672 280.183 157.599 280.486 157.456C280.791 157.315 281.069 157.116 281.305 156.868C281.544 156.616 281.736 156.32 281.871 155.995C282.014 155.652 282.086 155.282 282.083 154.909C282.078 154.371 281.88 153.855 281.528 153.463C281.345 153.264 281.126 153.105 280.883 152.996C280.62 152.877 280.336 152.818 280.049 152.821C279.659 152.807 279.274 152.911 278.938 153.119C278.802 153.192 278.687 153.303 278.606 153.438C278.524 153.574 278.48 153.73 278.477 153.89C278.476 154.005 278.499 154.119 278.543 154.225C278.587 154.33 278.651 154.425 278.732 154.502C278.828 154.592 278.941 154.661 279.062 154.705C279.184 154.75 279.313 154.769 279.442 154.761C279.52 154.766 279.598 154.748 279.667 154.711C279.737 154.673 279.795 154.617 279.837 154.547L279.428 156.518C279.123 156.442 278.832 156.316 278.565 156.144C278.286 155.97 278.033 155.757 277.811 155.51C277.597 155.273 277.417 155.006 277.277 154.716C277.142 154.438 277.072 154.13 277.072 153.818C277.072 153.506 277.142 153.199 277.277 152.92C277.421 152.631 277.626 152.38 277.877 152.186C278.168 151.966 278.496 151.802 278.843 151.704C279.271 151.58 279.714 151.521 280.158 151.528C280.568 151.526 280.974 151.612 281.351 151.78C281.726 151.946 282.066 152.19 282.35 152.496C282.634 152.802 282.857 153.164 283.005 153.561C283.17 153.999 283.252 154.466 283.246 154.936C283.25 155.543 283.159 156.146 282.975 156.722Z" fill="#27292D" fill-opacity="0.5"/>
<path d="M287.306 151.135H287.21C286.808 151.393 286.485 151.739 286.271 152.138C286.082 152.528 285.987 152.949 285.994 153.374C285.996 153.676 286.039 153.976 286.123 154.268C286.211 154.574 286.306 154.891 286.419 155.217C286.532 155.542 286.633 155.879 286.731 156.22C286.83 156.567 286.891 156.921 286.914 157.278C286.919 157.548 286.887 157.817 286.819 158.079C286.762 158.289 286.665 158.489 286.532 158.669C286.404 158.841 286.249 158.996 286.072 159.129C285.872 159.276 285.66 159.411 285.439 159.532C285.185 159.677 284.911 159.79 284.623 159.868C284.394 159.941 284.154 159.986 283.911 160L283.946 158.677L284.493 158.491C284.705 158.407 284.898 158.292 285.066 158.149C285.191 158.042 285.294 157.915 285.369 157.775C285.43 157.662 285.468 157.541 285.483 157.417C285.494 157.304 285.501 157.2 285.501 157.106C285.493 156.943 285.46 156.78 285.404 156.624C285.34 156.428 285.265 156.217 285.18 155.995C285.094 155.772 284.997 155.548 284.902 155.326C284.812 155.125 284.733 154.92 284.667 154.711C284.59 154.494 284.541 154.27 284.519 154.043C284.491 153.785 284.477 153.494 284.477 153.171C284.474 152.92 284.509 152.669 284.581 152.426C284.641 152.22 284.722 152.019 284.824 151.826C284.903 151.676 284.999 151.533 285.11 151.399C285.188 151.307 285.272 151.218 285.362 151.135H283L283.608 150H288L287.306 151.135Z" fill="#27292D" fill-opacity="0.5"/>
<path d="M295.66 150L295.063 151.097H294.638V157.91L296 157.354L294.833 159.458H293.487C292.6 157.093 291.447 155.91 290.027 155.909C289.609 155.915 289.198 156.023 288.83 156.225L288.249 153.653L293.281 151.097H287L287.763 150H295.66ZM291.697 158.467L291.038 160C291 159.645 290.849 159.312 290.606 159.052C290.483 158.934 290.337 158.842 290.177 158.783C290.018 158.723 289.848 158.697 289.678 158.705C289.613 158.704 289.548 158.707 289.483 158.713C289.437 158.717 289.392 158.73 289.349 158.75L289.873 157.246C290.274 157.226 290.672 157.325 291.016 157.532C291.334 157.766 291.571 158.092 291.697 158.467ZM293.283 156.661V152.6L289.573 154.542C290.122 154.59 290.564 154.637 290.897 154.684C291.138 154.71 291.375 154.758 291.608 154.826C292.425 155.129 292.984 155.74 293.283 156.661Z" fill="#27292D" fill-opacity="0.5"/>
<path d="M308 150L307.384 151.044H306.92V157.727L307.953 157.055L306.92 159H305.622V154.823L305.391 154.392L305.128 154.034C305.075 153.953 305.013 153.876 304.944 153.806L304.635 153.491C304.543 153.387 304.41 153.32 304.265 153.305C304.145 153.317 304.034 153.37 303.956 153.455C303.823 153.577 303.702 153.709 303.594 153.849C303.464 154.012 303.336 154.188 303.208 154.379C303.079 154.57 302.956 154.755 302.838 154.937C302.719 155.119 302.609 155.28 302.513 155.423C302.438 155.532 302.355 155.637 302.267 155.737C302.137 155.867 301.989 155.98 301.827 156.074C301.659 156.174 301.464 156.227 301.264 156.225C301.108 156.212 300.957 156.166 300.824 156.089C300.622 155.983 300.433 155.855 300.262 155.709C300.051 155.531 299.862 155.332 299.699 155.116C299.517 154.878 299.379 154.615 299.29 154.335L300.446 153.834C300.479 153.944 300.52 154.052 300.57 154.156C300.616 154.26 300.67 154.361 300.732 154.457C300.787 154.54 300.851 154.617 300.925 154.686C300.951 154.714 300.983 154.736 301.018 154.752C301.054 154.768 301.093 154.777 301.133 154.779C301.287 154.779 301.488 154.617 301.735 154.293C301.893 154.097 302.023 153.883 302.121 153.655C302.172 153.505 302.197 153.348 302.197 153.191C302.202 153.061 302.178 152.932 302.127 152.811C302.087 152.719 302.032 152.632 301.965 152.554C301.905 152.485 301.838 152.423 301.764 152.368C301.692 152.315 301.624 152.265 301.563 152.217C301.346 152.036 301.068 151.929 300.776 151.916C300.542 151.921 300.314 151.98 300.112 152.089L300.098 151.044H298L298.785 150H308ZM305.67 152.947V151.044H301.675C301.904 151.111 302.123 151.207 302.324 151.33C302.491 151.436 302.646 151.558 302.786 151.695C302.903 151.815 303.011 151.941 303.11 152.074C303.203 152.199 303.273 152.314 303.342 152.417L303.698 152.132C303.84 152.023 304.021 151.967 304.205 151.974C304.36 151.989 304.511 152.025 304.653 152.082C304.902 152.205 305.123 152.373 305.302 152.575L305.67 152.947Z" fill="#27292D" fill-opacity="0.5"/>
<path d="M313.397 159C313.322 158.795 313.195 158.609 313.028 158.457C312.846 158.291 312.639 158.151 312.412 158.042C312.171 157.927 311.918 157.836 311.656 157.77C311.405 157.706 311.145 157.673 310.884 157.671C310.566 157.651 310.249 157.721 309.975 157.871L309.174 156.112L313.29 154.112V153.962C312.974 153.579 312.575 153.262 312.118 153.031C311.662 152.81 311.153 152.697 310.638 152.703C310.563 152.696 310.486 152.705 310.415 152.73C310.345 152.755 310.281 152.794 310.229 152.846C310.148 152.955 310.108 153.085 310.114 153.218C310.096 153.471 310.181 153.721 310.353 153.918C310.404 153.984 310.47 154.04 310.545 154.082C310.621 154.124 310.705 154.151 310.792 154.162H310.839L310.145 155.407C309.619 155.345 309.138 155.103 308.796 154.727C308.45 154.35 308.278 153.785 308.279 153.031C308.279 152.451 308.469 152.024 308.85 151.752C309.285 151.464 309.811 151.32 310.345 151.344C310.87 151.347 311.392 151.422 311.894 151.565C312.394 151.7 312.863 151.921 313.274 152.216V151.043H307L307.786 150H318L317.214 151.043H314.701V153.661L316.011 153.06L317.045 154.004V158.053L315.795 158.839V154.563L314.701 155.092V157.949L315.641 157.306L314.902 158.992L313.397 159ZM313.397 157.269V155.554L311.359 156.518C311.742 156.525 312.12 156.602 312.47 156.746C312.81 156.868 313.125 157.045 313.397 157.269Z" fill="#27292D" fill-opacity="0.5"/>
<path d="M319.584 149.611H320.747L319.956 150.698H319.608V157.465L321 156.929L319.939 159H318.264V150.696H317L317.678 149.609H318.264V148L319.594 148.783L319.584 149.611Z" fill="#27292D" fill-opacity="0.5"/>
<path d="M324.8 158.108C324.692 158.364 324.515 158.583 324.291 158.74C324.03 158.919 323.722 159.01 323.41 158.999C322.984 159.011 322.569 158.869 322.235 158.597C321.902 158.319 321.628 157.973 321.432 157.581C321.219 157.164 321.064 156.718 320.971 156.256C320.878 155.824 320.829 155.382 320.824 154.939C320.809 154.192 320.943 153.449 321.216 152.757C321.492 152.105 321.902 151.523 322.417 151.051H320L320.573 150H325L324.441 151.051C324.219 151.143 324.009 151.261 323.814 151.403C323.572 151.577 323.351 151.78 323.157 152.009C322.924 152.286 322.721 152.588 322.549 152.909C322.342 153.3 322.176 153.713 322.053 154.14C322.014 154.256 321.991 154.378 321.984 154.5C321.974 154.635 321.969 154.783 321.969 154.947C321.967 155.32 322.007 155.693 322.088 156.056C322.156 156.371 322.262 156.676 322.402 156.965C322.515 157.201 322.672 157.411 322.863 157.584C323.016 157.728 323.214 157.81 323.421 157.814C323.489 157.82 323.557 157.811 323.62 157.786C323.683 157.761 323.74 157.721 323.786 157.67C323.874 157.544 323.94 157.402 323.981 157.252L324.8 158.108Z" fill="#27292D" fill-opacity="0.5"/>
<path d="M332.561 150L331.974 151.044H331.58V157.556L333 157.24L331.594 159H330.262V156.01C330.116 155.68 329.931 155.368 329.712 155.08C329.49 154.783 329.24 154.508 328.965 154.257C328.717 154.027 328.439 153.83 328.138 153.67C327.904 153.536 327.64 153.459 327.368 153.448C327.282 153.443 327.196 153.46 327.118 153.496C327.04 153.532 326.972 153.587 326.921 153.655C326.821 153.786 326.767 153.944 326.767 154.107C326.767 154.212 326.794 154.316 326.848 154.407C326.962 154.589 327.127 154.736 327.323 154.83L327.514 154.902L326.928 156.204C325.787 155.794 325.216 155.098 325.215 154.114C325.211 153.807 325.281 153.504 325.42 153.228C325.55 152.969 325.731 152.738 325.954 152.548C326.173 152.363 326.423 152.217 326.694 152.118C326.956 152.02 327.234 151.969 327.514 151.968C328.068 151.959 328.614 152.103 329.088 152.383C329.563 152.67 329.961 153.062 330.253 153.527V151.044H324L324.745 150H332.561Z" fill="#27292D" fill-opacity="0.5"/>
<path d="M345.873 151.042V157.471L347.225 157L346.095 158.985H344.512L344.498 157.772C344.395 157.609 344.303 157.471 344.222 157.35C344.141 157.228 344.073 157.133 344.022 157.057L343.5 156.557C343.383 156.791 343.224 157.006 343.032 157.193C342.828 157.391 342.595 157.561 342.341 157.699C342.078 157.843 341.797 157.953 341.503 158.028C341.208 158.105 340.903 158.143 340.597 158.143C340.295 158.143 339.994 158.112 339.7 158.049C339.396 157.984 339.104 157.879 338.833 157.736C338.519 157.571 338.23 157.369 337.972 157.135C337.654 156.84 337.371 156.515 337.128 156.163C336.617 155.46 336.209 154.695 335.915 153.891L336.991 152.877C337.039 153.275 337.147 153.665 337.314 154.034C337.482 154.424 337.688 154.799 337.929 155.156C338.148 155.485 338.405 155.792 338.696 156.07C338.926 156.302 339.2 156.493 339.503 156.635C339.838 156.786 340.206 156.864 340.578 156.863C340.85 156.866 341.12 156.815 341.369 156.713C341.601 156.619 341.811 156.485 341.991 156.319C342.342 155.988 342.54 155.543 342.543 155.077C342.535 155.049 342.53 155.021 342.528 154.992V154.92C342.446 154.119 342.226 153.505 341.868 153.077C341.705 152.872 341.492 152.707 341.246 152.595C341 152.483 340.729 152.428 340.455 152.434C340.112 152.422 339.774 152.509 339.487 152.684C339.227 152.85 339.096 153.025 339.096 153.206C339.09 153.324 339.134 153.44 339.219 153.528C339.301 153.609 339.474 153.648 339.74 153.648L339.495 154.92C339.257 154.921 339.021 154.875 338.804 154.785C338.593 154.698 338.403 154.574 338.243 154.42C338.085 154.267 337.96 154.088 337.875 153.891C337.787 153.687 337.743 153.468 337.745 153.248C337.74 152.953 337.813 152.661 337.959 152.398C338.102 152.147 338.301 151.928 338.544 151.756C338.8 151.575 339.088 151.437 339.395 151.349C339.725 151.253 340.07 151.205 340.417 151.206C340.921 151.197 341.421 151.305 341.87 151.52C342.29 151.727 342.657 152.017 342.945 152.37C343.246 152.744 343.472 153.165 343.613 153.613C343.768 154.098 343.846 154.601 343.842 155.106L344.58 156.135V151.042H335L335.783 150H349.769L349.109 151.042H348.649V157.528L350 157.015L348.972 159H347.344V151.041L345.873 151.042Z" fill="#27292D" fill-opacity="0.5"/>
<path d="M358.799 149.613L358.164 150.702H357.745V157.568L359 157.031L357.947 159H356.38V153.731L352.055 155.597L351.59 154.403L352.955 153.747C352.952 153.555 352.895 153.367 352.792 153.203C352.688 153.03 352.56 152.871 352.412 152.732C352.268 152.597 352.103 152.483 351.923 152.396C351.78 152.32 351.621 152.277 351.458 152.269C351.43 152.268 351.402 152.274 351.377 152.288C351.352 152.301 351.332 152.321 351.318 152.344C351.284 152.401 351.263 152.464 351.256 152.53C351.246 152.611 351.241 152.694 351.242 152.776V153.046L350.001 153.388C349.99 152.836 350.077 152.286 350.257 151.762C350.408 151.325 350.654 150.923 350.977 150.583C351.284 150.266 351.66 150.019 352.078 149.859C352.527 149.69 353.007 149.606 353.49 149.613C353.818 149.612 354.143 149.681 354.442 149.814C354.753 149.953 355.035 150.148 355.272 150.388C355.534 150.657 355.759 150.958 355.938 151.284C356.143 151.652 356.299 152.043 356.403 152.448V148L357.707 148.784V149.621L358.799 149.613ZM355.28 152.672C355.133 152.147 354.821 151.678 354.388 151.329C354.033 151.045 353.587 150.886 353.124 150.881C352.922 150.874 352.721 150.907 352.532 150.976C352.343 151.045 352.171 151.15 352.024 151.284H352.117C352.335 151.293 352.546 151.358 352.73 151.471C352.958 151.599 353.167 151.758 353.349 151.941C353.542 152.127 353.707 152.339 353.839 152.569C353.959 152.769 354.026 152.995 354.033 153.226L355.28 152.672Z" fill="#27292D" fill-opacity="0.5"/>
<path d="M368 150L367.384 151.044H366.92V157.727L367.955 157.055L366.92 159H365.622V154.823L365.39 154.392L365.127 154.034C365.074 153.953 365.012 153.876 364.942 153.806L364.634 153.491C364.542 153.387 364.409 153.32 364.264 153.305C364.145 153.317 364.034 153.371 363.956 153.455C363.823 153.577 363.701 153.709 363.593 153.849C363.465 154.012 363.337 154.188 363.207 154.379C363.077 154.57 362.955 154.755 362.837 154.937C362.719 155.119 362.608 155.28 362.513 155.423C362.436 155.532 362.354 155.637 362.266 155.737C362.135 155.866 361.988 155.979 361.826 156.074C361.658 156.174 361.462 156.227 361.262 156.225C361.106 156.212 360.955 156.166 360.822 156.089C360.62 155.982 360.431 155.855 360.26 155.709C360.049 155.531 359.86 155.332 359.697 155.116C359.515 154.878 359.377 154.615 359.288 154.335L360.444 153.834C360.478 153.944 360.519 154.052 360.568 154.156C360.614 154.26 360.668 154.361 360.73 154.457C360.785 154.54 360.85 154.616 360.923 154.686C360.949 154.714 360.981 154.736 361.016 154.752C361.052 154.768 361.091 154.777 361.131 154.779C361.284 154.779 361.485 154.617 361.732 154.293C361.891 154.097 362.02 153.883 362.118 153.655C362.17 153.505 362.196 153.348 362.195 153.191C362.199 153.061 362.176 152.932 362.127 152.811C362.085 152.719 362.031 152.633 361.964 152.554C361.905 152.485 361.838 152.423 361.763 152.368C361.692 152.315 361.625 152.265 361.564 152.217C361.347 152.036 361.069 151.929 360.777 151.916C360.543 151.92 360.315 151.98 360.114 152.089L360.097 151.044H358L358.787 150H368ZM365.671 152.947V151.044H361.676C361.902 151.111 362.118 151.208 362.316 151.33C362.485 151.435 362.64 151.558 362.779 151.695C362.896 151.815 363.004 151.941 363.103 152.074C363.195 152.199 363.265 152.314 363.333 152.417L363.689 152.132C363.832 152.023 364.013 151.967 364.198 151.974C364.352 151.989 364.503 152.026 364.646 152.082C364.894 152.206 365.115 152.373 365.294 152.575L365.671 152.947Z" fill="#27292D" fill-opacity="0.5"/>
<path d="M376 150L375.169 151.036H367L367.783 150H376ZM375.832 159L368.908 157.424L368.014 154.898C368.535 154.983 369.023 155.047 369.492 155.096C369.935 155.142 370.381 155.166 370.827 155.166C371.186 155.168 371.544 155.145 371.899 155.096C372.197 155.058 372.486 154.976 372.753 154.854C372.982 154.75 373.178 154.596 373.322 154.407C373.465 154.205 373.538 153.97 373.53 153.732C373.53 153.533 373.454 153.34 373.313 153.185C373.16 153.012 372.973 152.866 372.762 152.752C372.524 152.624 372.265 152.528 371.995 152.468C371.713 152.403 371.423 152.369 371.131 152.368C370.992 152.37 370.853 152.379 370.716 152.397C370.575 152.414 370.436 152.443 370.3 152.482C370.184 152.515 370.076 152.565 369.979 152.631C369.942 152.654 369.911 152.685 369.889 152.721C369.867 152.757 369.854 152.796 369.851 152.837C369.87 152.997 369.952 153.145 370.083 153.256C370.181 153.341 370.298 153.405 370.426 153.446C370.554 153.486 370.691 153.501 370.827 153.49C371.005 153.492 371.182 153.473 371.355 153.434L370.699 154.683C370.399 154.682 370.101 154.634 369.82 154.541C369.539 154.451 369.28 154.316 369.053 154.144C368.83 153.974 368.648 153.766 368.517 153.532C368.382 153.29 368.313 153.022 368.316 152.752C368.335 152.517 368.406 152.288 368.525 152.077C368.635 151.882 368.784 151.707 368.965 151.559C369.311 151.281 369.754 151.115 370.22 151.091L370.827 151.07L371.148 151.063C371.704 151.055 372.257 151.13 372.785 151.283C373.233 151.412 373.65 151.611 374.018 151.871C374.345 152.109 374.609 152.407 374.793 152.744C374.974 153.079 375.067 153.446 375.065 153.817C375.075 154.214 374.976 154.606 374.776 154.96C374.587 155.283 374.313 155.561 373.977 155.769C373.614 155.991 373.207 156.152 372.779 156.244C372.298 156.351 371.803 156.403 371.307 156.4C370.922 156.403 370.536 156.374 370.156 156.315L375.406 157.658L375.832 159Z" fill="#27292D" fill-opacity="0.5"/>
<path d="M379 156.974L377.921 159H375.963V150.951H374.607L375.429 149.895H376.073V149.097C376.084 148.759 376.021 148.423 375.888 148.107C375.783 147.866 375.62 147.648 375.412 147.469C375.226 147.313 375.003 147.197 374.76 147.13C374.534 147.063 374.298 147.029 374.06 147.028C373.71 147.031 373.362 147.083 373.028 147.18C372.647 147.287 372.277 147.425 371.924 147.592C371.547 147.769 371.186 147.973 370.845 148.201C370.506 148.425 370.19 148.677 369.903 148.953C369.796 148.906 369.656 148.84 369.484 148.758C369.306 148.672 369.142 148.562 369 148.432L369.339 148.128C370.052 147.5 370.867 146.973 371.756 146.565C372.496 146.21 373.318 146.017 374.157 146C375.012 145.988 375.84 146.267 376.476 146.781C376.766 147.059 376.991 147.387 377.137 147.744C377.341 148.277 377.434 148.839 377.411 149.402C377.411 149.45 377.411 149.517 377.411 149.604C377.411 149.691 377.397 149.788 377.387 149.895H378.82L378.177 150.951H377.563V157.626L379 156.974Z" fill="#27292D" fill-opacity="0.5"/>
<path d="M386.561 150L385.976 151.044H385.58V157.556L387 157.24L385.594 159H384.262V156.01C384.116 155.68 383.931 155.368 383.712 155.08C383.49 154.783 383.24 154.507 382.965 154.257C382.717 154.027 382.439 153.83 382.138 153.67C381.904 153.536 381.64 153.459 381.368 153.448C381.282 153.443 381.196 153.46 381.118 153.496C381.04 153.532 380.972 153.587 380.921 153.655C380.822 153.786 380.768 153.944 380.767 154.107C380.767 154.212 380.795 154.316 380.848 154.407C380.9 154.497 380.967 154.577 381.046 154.644C381.127 154.722 381.221 154.785 381.325 154.83L381.514 154.902L380.929 156.204C379.786 155.794 379.215 155.098 379.215 154.114C379.211 153.807 379.281 153.504 379.42 153.228C379.55 152.969 379.732 152.738 379.954 152.548C380.173 152.363 380.424 152.217 380.695 152.118C380.957 152.02 381.234 151.969 381.514 151.968C382.069 151.959 382.615 152.103 383.09 152.383C383.564 152.67 383.963 153.062 384.254 153.527V151.044H378L378.747 150H386.561Z" fill="#27292D" fill-opacity="0.5"/>
<rect x="193.5" y="179.5" width="128" height="34" rx="17" fill="#D9D9D9" stroke="#9198A1"/>
<rect x="233" y="174" width="48" height="10" fill="#D9D9D9"/>
<path d="M237.579 180.756C237.269 180.756 236.995 180.682 236.758 180.534C236.521 180.385 236.335 180.175 236.201 179.903C236.067 179.63 236 179.308 236 178.936C236 178.567 236.067 178.247 236.201 177.976C236.335 177.704 236.521 177.495 236.76 177.347C236.999 177.199 237.275 177.125 237.588 177.125C237.83 177.125 238.022 177.163 238.162 177.239C238.304 177.314 238.412 177.399 238.487 177.495C238.563 177.59 238.621 177.668 238.663 177.729H238.712V176H239.283V180.683H238.731V180.143H238.663C238.621 180.207 238.562 180.288 238.484 180.386C238.407 180.482 238.296 180.568 238.153 180.644C238.009 180.719 237.818 180.756 237.579 180.756ZM237.656 180.271C237.885 180.271 238.079 180.215 238.237 180.102C238.395 179.988 238.516 179.83 238.598 179.629C238.68 179.426 238.722 179.192 238.722 178.927C238.722 178.665 238.681 178.435 238.6 178.239C238.52 178.04 238.4 177.886 238.242 177.777C238.084 177.665 237.889 177.61 237.656 177.61C237.414 177.61 237.212 177.668 237.051 177.786C236.891 177.902 236.771 178.059 236.69 178.259C236.611 178.457 236.571 178.68 236.571 178.927C236.571 179.177 236.612 179.404 236.692 179.608C236.775 179.811 236.896 179.973 237.056 180.093C237.217 180.212 237.417 180.271 237.656 180.271Z" fill="#9198A1"/>
<path d="M241.968 180.756C241.61 180.756 241.301 180.681 241.041 180.532C240.783 180.381 240.583 180.171 240.443 179.901C240.304 179.63 240.235 179.314 240.235 178.954C240.235 178.595 240.304 178.277 240.443 178.003C240.583 177.727 240.779 177.512 241.029 177.358C241.281 177.203 241.575 177.125 241.91 177.125C242.104 177.125 242.295 177.155 242.484 177.216C242.673 177.277 242.845 177.377 243 177.514C243.155 177.649 243.278 177.829 243.37 178.053C243.462 178.277 243.508 178.553 243.508 178.881V179.11H240.642V178.643H242.927C242.927 178.445 242.885 178.268 242.801 178.113C242.719 177.957 242.601 177.835 242.448 177.745C242.296 177.655 242.117 177.61 241.91 177.61C241.683 177.61 241.486 177.663 241.32 177.77C241.155 177.875 241.028 178.012 240.939 178.181C240.851 178.351 240.806 178.532 240.806 178.726V179.037C240.806 179.302 240.855 179.527 240.952 179.711C241.05 179.894 241.186 180.034 241.361 180.13C241.535 180.224 241.738 180.271 241.968 180.271C242.119 180.271 242.254 180.252 242.375 180.212C242.498 180.171 242.604 180.11 242.692 180.029C242.781 179.947 242.85 179.845 242.898 179.723L243.45 179.869C243.392 180.046 243.294 180.201 243.157 180.335C243.02 180.468 242.851 180.572 242.649 180.646C242.447 180.72 242.22 180.756 241.968 180.756Z" fill="#9198A1"/>
<path d="M247.306 177.171L245.93 180.683H245.349L243.974 177.171H244.594L245.62 179.97H245.659L246.686 177.171H247.306Z" fill="#9198A1"/>
<path d="M249.486 180.756C249.128 180.756 248.818 180.681 248.559 180.532C248.3 180.381 248.101 180.171 247.96 179.901C247.822 179.63 247.752 179.314 247.752 178.954C247.752 178.595 247.822 178.277 247.96 178.003C248.101 177.727 248.296 177.512 248.546 177.358C248.798 177.203 249.092 177.125 249.428 177.125C249.621 177.125 249.813 177.155 250.002 177.216C250.19 177.277 250.362 177.377 250.517 177.514C250.672 177.649 250.796 177.829 250.888 178.053C250.98 178.277 251.026 178.553 251.026 178.881V179.11H248.159V178.643H250.445C250.445 178.445 250.403 178.268 250.319 178.113C250.236 177.957 250.119 177.835 249.965 177.745C249.814 177.655 249.634 177.61 249.428 177.61C249.2 177.61 249.003 177.663 248.837 177.77C248.672 177.875 248.546 178.012 248.457 178.181C248.368 178.351 248.324 178.532 248.324 178.726V179.037C248.324 179.302 248.372 179.527 248.469 179.711C248.567 179.894 248.704 180.034 248.878 180.13C249.052 180.224 249.255 180.271 249.486 180.271C249.636 180.271 249.772 180.252 249.893 180.212C250.015 180.171 250.121 180.11 250.21 180.029C250.299 179.947 250.367 179.845 250.416 179.723L250.968 179.869C250.91 180.046 250.812 180.201 250.675 180.335C250.538 180.468 250.368 180.572 250.166 180.646C249.964 180.72 249.738 180.756 249.486 180.756Z" fill="#9198A1"/>
<path d="M252.466 176V180.683H251.895V176H252.466Z" fill="#9198A1"/>
<path d="M255.024 180.756C254.688 180.756 254.394 180.681 254.14 180.53C253.888 180.379 253.691 180.168 253.549 179.896C253.409 179.625 253.339 179.308 253.339 178.945C253.339 178.579 253.409 178.26 253.549 177.987C253.691 177.714 253.888 177.502 254.14 177.351C254.394 177.2 254.688 177.125 255.024 177.125C255.36 177.125 255.653 177.2 255.905 177.351C256.159 177.502 256.356 177.714 256.496 177.987C256.638 178.26 256.709 178.579 256.709 178.945C256.709 179.308 256.638 179.625 256.496 179.896C256.356 180.168 256.159 180.379 255.905 180.53C255.653 180.681 255.36 180.756 255.024 180.756ZM255.024 180.271C255.279 180.271 255.489 180.21 255.653 180.086C255.818 179.963 255.94 179.8 256.019 179.599C256.098 179.398 256.138 179.18 256.138 178.945C256.138 178.71 256.098 178.492 256.019 178.289C255.94 178.086 255.818 177.922 255.653 177.797C255.489 177.672 255.279 177.61 255.024 177.61C254.769 177.61 254.559 177.672 254.394 177.797C254.23 177.922 254.108 178.086 254.029 178.289C253.95 178.492 253.91 178.71 253.91 178.945C253.91 179.18 253.95 179.398 254.029 179.599C254.108 179.8 254.23 179.963 254.394 180.086C254.559 180.21 254.769 180.271 255.024 180.271Z" fill="#9198A1"/>
<path d="M257.581 182V177.171H258.133V177.729H258.201C258.243 177.668 258.301 177.59 258.376 177.495C258.451 177.399 258.56 177.314 258.7 177.239C258.842 177.163 259.034 177.125 259.276 177.125C259.589 177.125 259.865 177.199 260.104 177.347C260.343 177.495 260.53 177.704 260.664 177.976C260.798 178.247 260.865 178.567 260.865 178.936C260.865 179.308 260.798 179.63 260.664 179.903C260.53 180.175 260.344 180.385 260.107 180.534C259.87 180.682 259.596 180.756 259.286 180.756C259.047 180.756 258.856 180.719 258.712 180.644C258.568 180.568 258.458 180.482 258.38 180.386C258.303 180.288 258.243 180.207 258.201 180.143H258.153V182H257.581ZM258.143 178.927C258.143 179.192 258.184 179.426 258.267 179.629C258.349 179.83 258.469 179.988 258.627 180.102C258.786 180.215 258.979 180.271 259.209 180.271C259.447 180.271 259.647 180.212 259.807 180.093C259.968 179.973 260.089 179.811 260.17 179.608C260.252 179.404 260.293 179.177 260.293 178.927C260.293 178.68 260.253 178.457 260.172 178.259C260.093 178.059 259.973 177.902 259.811 177.786C259.652 177.668 259.451 177.61 259.209 177.61C258.976 177.61 258.781 177.665 258.623 177.777C258.464 177.886 258.345 178.04 258.264 178.239C258.184 178.435 258.143 178.665 258.143 178.927Z" fill="#9198A1"/>
<path d="M263.296 180.756C262.937 180.756 262.628 180.681 262.368 180.532C262.11 180.381 261.911 180.171 261.77 179.901C261.631 179.63 261.562 179.314 261.562 178.954C261.562 178.595 261.631 178.277 261.77 178.003C261.911 177.727 262.106 177.512 262.356 177.358C262.608 177.203 262.902 177.125 263.238 177.125C263.431 177.125 263.622 177.155 263.811 177.216C264 177.277 264.172 177.377 264.327 177.514C264.482 177.649 264.606 177.829 264.698 178.053C264.79 178.277 264.836 178.553 264.836 178.881V179.11H261.969V178.643H264.254C264.254 178.445 264.212 178.268 264.129 178.113C264.046 177.957 263.928 177.835 263.775 177.745C263.623 177.655 263.444 177.61 263.238 177.61C263.01 177.61 262.813 177.663 262.647 177.77C262.482 177.875 262.355 178.012 262.267 178.181C262.178 178.351 262.133 178.532 262.133 178.726V179.037C262.133 179.302 262.182 179.527 262.279 179.711C262.377 179.894 262.514 180.034 262.688 180.13C262.862 180.224 263.065 180.271 263.296 180.271C263.446 180.271 263.581 180.252 263.702 180.212C263.825 180.171 263.931 180.11 264.02 180.029C264.108 179.947 264.177 179.845 264.225 179.723L264.777 179.869C264.719 180.046 264.622 180.201 264.484 180.335C264.347 180.468 264.178 180.572 263.976 180.646C263.774 180.72 263.547 180.756 263.296 180.756Z" fill="#9198A1"/>
<path d="M267.109 180.756C266.799 180.756 266.526 180.682 266.288 180.534C266.051 180.385 265.865 180.175 265.731 179.903C265.597 179.63 265.53 179.308 265.53 178.936C265.53 178.567 265.597 178.247 265.731 177.976C265.865 177.704 266.052 177.495 266.291 177.347C266.53 177.199 266.806 177.125 267.119 177.125C267.361 177.125 267.552 177.163 267.693 177.239C267.835 177.314 267.943 177.399 268.017 177.495C268.093 177.59 268.152 177.668 268.194 177.729H268.242V176H268.814V180.683H268.262V180.143H268.194C268.152 180.207 268.092 180.288 268.015 180.386C267.937 180.482 267.827 180.568 267.683 180.644C267.539 180.719 267.348 180.756 267.109 180.756ZM267.187 180.271C267.416 180.271 267.61 180.215 267.768 180.102C267.926 179.988 268.046 179.83 268.128 179.629C268.211 179.426 268.252 179.192 268.252 178.927C268.252 178.665 268.212 178.435 268.131 178.239C268.05 178.04 267.931 177.886 267.773 177.777C267.614 177.665 267.419 177.61 267.187 177.61C266.944 177.61 266.743 177.668 266.581 177.786C266.421 177.902 266.301 178.059 266.221 178.259C266.141 178.457 266.102 178.68 266.102 178.927C266.102 179.177 266.142 179.404 266.223 179.608C266.305 179.811 266.426 179.973 266.586 180.093C266.748 180.212 266.948 180.271 267.187 180.271Z" fill="#9198A1"/>
<path d="M271.935 180.683V176H272.506V177.729H272.555C272.597 177.668 272.655 177.59 272.729 177.495C272.805 177.399 272.913 177.314 273.053 177.239C273.195 177.163 273.387 177.125 273.63 177.125C273.943 177.125 274.219 177.199 274.458 177.347C274.697 177.495 274.883 177.704 275.017 177.976C275.151 178.247 275.218 178.567 275.218 178.936C275.218 179.308 275.151 179.63 275.017 179.903C274.883 180.175 274.697 180.385 274.46 180.534C274.223 180.682 273.949 180.756 273.639 180.756C273.4 180.756 273.209 180.719 273.065 180.644C272.922 180.568 272.811 180.482 272.734 180.386C272.656 180.288 272.597 180.207 272.555 180.143H272.487V180.683H271.935ZM272.496 178.927C272.496 179.192 272.538 179.426 272.62 179.629C272.702 179.83 272.823 179.988 272.981 180.102C273.139 180.215 273.333 180.271 273.562 180.271C273.801 180.271 274 180.212 274.16 180.093C274.321 179.973 274.442 179.811 274.523 179.608C274.605 179.404 274.647 179.177 274.647 178.927C274.647 178.68 274.606 178.457 274.525 178.259C274.446 178.059 274.326 177.902 274.165 177.786C274.005 177.668 273.804 177.61 273.562 177.61C273.329 177.61 273.134 177.665 272.976 177.777C272.818 177.886 272.698 178.04 272.618 178.239C272.537 178.435 272.496 178.665 272.496 178.927Z" fill="#9198A1"/>
<path d="M276.327 182C276.23 182 276.144 181.992 276.068 181.977C275.992 181.963 275.94 181.95 275.91 181.936L276.056 181.46C276.195 181.494 276.317 181.506 276.424 181.497C276.53 181.488 276.625 181.443 276.707 181.362C276.791 181.283 276.868 181.154 276.937 180.976L277.044 180.701L275.668 177.171H276.288L277.315 179.97H277.354L278.38 177.171H279L277.421 181.195C277.35 181.377 277.262 181.527 277.157 181.646C277.052 181.766 276.931 181.855 276.792 181.913C276.655 181.971 276.5 182 276.327 182Z" fill="#9198A1"/>
<path d="M217.99 190.816V191.976H217.665C217.329 192.052 216.966 192.22 216.576 192.482C216.186 192.732 215.817 193.064 215.471 193.478C215.124 193.88 214.837 194.354 214.609 194.898C214.392 195.442 214.284 196.041 214.284 196.694C214.284 197.478 214.398 198.103 214.625 198.571C214.864 199.029 215.156 199.355 215.503 199.551C215.85 199.747 216.197 199.845 216.543 199.845C216.814 199.845 217.042 199.818 217.226 199.763C217.41 199.709 217.621 199.611 217.86 199.469L218.429 200.465C218.147 200.683 217.838 200.835 217.502 200.922C217.166 201.01 216.825 201.053 216.478 201.053C215.796 201.053 215.194 200.873 214.674 200.514C214.154 200.155 213.742 199.654 213.439 199.012C213.146 198.359 213 197.597 213 196.727C213 195.888 213.13 195.143 213.39 194.49C213.661 193.826 214.008 193.249 214.43 192.759C214.864 192.269 215.33 191.867 215.828 191.551C216.327 191.224 216.809 190.98 217.275 190.816H217.99Z" fill="#9198A1"/>
<path d="M231.102 190.816V191.976H225.819V200.971H224.568C224.254 200.329 223.815 199.725 223.251 199.159C222.688 198.593 222.043 198.12 221.317 197.739C220.602 197.347 219.849 197.102 219.058 197.004L218.424 195.437C219.475 194.827 220.526 194.283 221.577 193.804C222.628 193.325 223.744 192.901 224.925 192.531L224.568 193.216V191.976H217.66V190.816H231.102ZM224.568 193.347L224.909 193.82C224.357 193.973 223.782 194.174 223.186 194.424C222.601 194.675 222.027 194.936 221.463 195.208C220.911 195.48 220.401 195.747 219.936 196.008C220.542 196.128 221.165 196.356 221.805 196.694C222.455 197.031 223.045 197.445 223.576 197.935C224.118 198.414 224.519 198.936 224.779 199.502L224.649 199.535C224.627 199.284 224.606 199.034 224.584 198.784C224.573 198.533 224.568 198.234 224.568 197.886V193.347ZM230.192 196.269C230.192 196.629 230.121 196.971 229.98 197.298C229.84 197.614 229.607 197.875 229.281 198.082C228.956 198.288 228.523 198.392 227.981 198.392C227.808 198.392 227.64 198.386 227.477 198.376C227.326 198.365 227.174 198.343 227.022 198.31L227.12 197.135C227.185 197.146 227.261 197.156 227.347 197.167C227.445 197.167 227.553 197.167 227.672 197.167C228.192 197.167 228.528 197.069 228.68 196.873C228.843 196.667 228.924 196.422 228.924 196.139C228.924 195.562 228.642 195.072 228.079 194.669C227.526 194.256 226.703 193.973 225.608 193.82L225.657 192.596C226.491 192.683 227.25 192.895 227.932 193.233C228.615 193.559 229.162 193.984 229.574 194.506C229.986 195.018 230.192 195.605 230.192 196.269Z" fill="#9198A1"/>
<path d="M236.72 190.816V191.976H236.395C236.059 192.052 235.696 192.22 235.306 192.482C234.916 192.732 234.547 193.064 234.201 193.478C233.854 193.88 233.567 194.354 233.339 194.898C233.122 195.442 233.014 196.041 233.014 196.694C233.014 197.478 233.128 198.103 233.355 198.571C233.594 199.029 233.886 199.355 234.233 199.551C234.58 199.747 234.927 199.845 235.273 199.845C235.544 199.845 235.772 199.818 235.956 199.763C236.14 199.709 236.351 199.611 236.59 199.469L237.159 200.465C236.877 200.683 236.568 200.835 236.232 200.922C235.896 201.01 235.56 201.053 235.225 201.053C234.542 201.053 233.935 200.873 233.404 200.514C232.884 200.155 232.472 199.654 232.169 199.012C231.876 198.359 231.73 197.597 231.73 196.727C231.73 195.834 231.898 195.029 232.234 194.31C232.57 193.581 233.019 192.966 233.583 192.465C234.157 191.965 234.791 191.6 235.485 191.371L234.444 191.91C234.249 191.932 234.038 191.948 233.81 191.959C233.583 191.97 233.328 191.976 233.047 191.976H230.771V190.816H236.72Z" fill="#9198A1"/>
<path d="M240.486 192.808C241.342 192.808 242.03 192.955 242.55 193.249C243.081 193.532 243.471 193.897 243.72 194.343C243.97 194.778 244.094 195.219 244.094 195.665C244.094 196.558 243.78 197.265 243.152 197.788C242.534 198.31 241.613 198.604 240.388 198.669L240.551 198.49C241.039 198.631 241.553 198.833 242.095 199.094C242.637 199.355 243.184 199.66 243.737 200.008C244.289 200.346 244.82 200.721 245.33 201.135L244.582 202C243.91 201.499 243.292 201.069 242.729 200.71C242.176 200.34 241.629 200.019 241.087 199.747C240.546 199.475 239.971 199.235 239.364 199.029C238.758 198.822 238.07 198.631 237.3 198.457L237.544 197.331C237.923 197.439 238.286 197.521 238.633 197.576C238.991 197.619 239.419 197.641 239.917 197.641C240.686 197.641 241.277 197.548 241.689 197.363C242.111 197.178 242.404 196.939 242.566 196.645C242.729 196.351 242.81 196.052 242.81 195.747C242.81 195.17 242.599 194.729 242.176 194.424C241.754 194.109 241.217 193.951 240.567 193.951C240.177 193.951 239.863 193.989 239.624 194.065C239.386 194.141 239.213 194.256 239.104 194.408C239.007 194.55 238.958 194.724 238.958 194.931C238.958 195.018 238.969 195.11 238.991 195.208C239.012 195.295 239.034 195.377 239.056 195.453L237.869 195.698C237.815 195.535 237.772 195.366 237.739 195.192C237.707 195.007 237.69 194.844 237.69 194.702C237.69 194.299 237.809 193.956 238.048 193.673C238.286 193.39 238.611 193.178 239.023 193.037C239.446 192.884 239.933 192.808 240.486 192.808ZM239.397 193.38C239.343 193.031 239.18 192.727 238.909 192.465C238.638 192.193 238.248 192.003 237.739 191.894L238.129 191.159L238.877 191.355C239.484 191.595 239.922 191.867 240.193 192.171C240.475 192.476 240.638 192.863 240.681 193.331L239.397 193.38ZM245.33 190.816V191.976H236.39V190.816H245.33Z" fill="#9198A1"/>
<path d="M255.444 190.816V191.976H253.737V200.971H252.486V198.767L252.778 199.633C252.399 199.056 252.014 198.522 251.624 198.033C251.245 197.543 250.839 197.146 250.405 196.841C249.983 196.536 249.517 196.384 249.007 196.384C248.606 196.384 248.265 196.487 247.983 196.694C247.712 196.901 247.577 197.211 247.577 197.624C247.577 197.984 247.707 198.288 247.967 198.539C248.227 198.778 248.612 198.985 249.121 199.159L248.715 200.416C248.13 200.21 247.653 199.959 247.284 199.665C246.927 199.371 246.661 199.05 246.488 198.702C246.326 198.343 246.244 197.967 246.244 197.576C246.244 197.053 246.369 196.618 246.618 196.269C246.878 195.921 247.203 195.66 247.593 195.486C247.994 195.301 248.395 195.208 248.796 195.208C249.446 195.208 250.015 195.328 250.503 195.567C251.001 195.807 251.435 196.128 251.803 196.531C252.182 196.933 252.524 197.385 252.827 197.886L252.551 197.935C252.529 197.684 252.513 197.434 252.502 197.184C252.491 196.922 252.486 196.656 252.486 196.384V191.976H245.009V190.816H255.444ZM250.031 195.698C250.031 195.763 250.026 195.829 250.015 195.894C250.015 195.959 250.01 196.024 249.999 196.09L248.764 195.714C248.742 195.083 248.634 194.577 248.438 194.196C248.243 193.815 247.935 193.527 247.512 193.331C247.089 193.124 246.515 192.982 245.789 192.906L246 191.731L246.748 191.943C247.268 191.986 247.729 192.095 248.13 192.269C248.541 192.433 248.888 192.667 249.17 192.971C249.452 193.276 249.663 193.657 249.804 194.114C249.956 194.561 250.031 195.088 250.031 195.698Z" fill="#9198A1"/>
<path d="M274.45 190.816V191.976H272.824V200.971H271.573C271.259 200.329 270.869 199.769 270.403 199.29C269.937 198.8 269.438 198.381 268.907 198.033L269.314 196.955C269.725 197.195 270.153 197.521 270.598 197.935C271.042 198.348 271.383 198.767 271.622 199.192C271.611 199.029 271.6 198.876 271.589 198.735C271.589 198.593 271.584 198.446 271.573 198.294C271.573 198.141 271.573 197.978 271.573 197.804V191.976H259.691V190.816H274.45ZM265.965 199.486C265.228 199.486 264.524 199.312 263.852 198.963C263.18 198.615 262.547 198.027 261.951 197.2C261.365 196.362 260.824 195.214 260.325 193.755L261.512 193.363C261.902 194.495 262.308 195.426 262.731 196.155C263.164 196.873 263.646 197.401 264.177 197.739C264.708 198.076 265.315 198.245 265.998 198.245C266.594 198.245 267.071 198.152 267.428 197.967C267.797 197.771 268.062 197.51 268.225 197.184C268.387 196.857 268.468 196.487 268.468 196.073C268.468 195.442 268.295 194.931 267.948 194.539C267.612 194.147 267.19 193.951 266.68 193.951C266.323 193.951 266.052 194.033 265.868 194.196C265.684 194.348 265.591 194.582 265.591 194.898C265.591 194.974 265.602 195.078 265.624 195.208C265.646 195.339 265.678 195.459 265.722 195.567L264.486 195.812C264.41 195.584 264.351 195.377 264.307 195.192C264.275 194.996 264.259 194.811 264.259 194.637C264.259 194.234 264.367 193.897 264.584 193.624C264.811 193.352 265.098 193.151 265.445 193.02C265.803 192.879 266.177 192.808 266.567 192.808C267.206 192.808 267.759 192.955 268.225 193.249C268.691 193.532 269.054 193.924 269.314 194.424C269.574 194.925 269.704 195.507 269.704 196.171C269.704 196.759 269.568 197.309 269.297 197.82C269.026 198.321 268.615 198.724 268.062 199.029C267.509 199.333 266.811 199.486 265.965 199.486ZM265.445 193.38C265.391 193.031 265.228 192.727 264.958 192.465C264.698 192.193 264.313 192.003 263.804 191.894L264.194 191.159L264.925 191.355C265.543 191.595 265.987 191.867 266.258 192.171C266.529 192.476 266.686 192.863 266.729 193.331L265.445 193.38ZM278.838 190.816V191.976H277.132V200.971H275.88V193.151C275.696 192.727 275.485 192.427 275.246 192.253C275.019 192.068 274.748 191.976 274.434 191.976H274.271V190.816H274.434C274.737 190.816 275.019 190.903 275.279 191.078C275.55 191.241 275.772 191.497 275.945 191.845C275.934 191.79 275.918 191.665 275.896 191.469C275.886 191.273 275.88 191.105 275.88 190.963V189.739H276.742L277.115 190.816H278.838Z" fill="#9198A1"/>
<path d="M284.498 190.816C284.487 190.37 284.379 190.049 284.173 189.853C283.978 189.657 283.653 189.559 283.198 189.559H282.027C281.312 189.559 280.76 189.51 280.369 189.412C279.99 189.314 279.665 189.162 279.394 188.955C279.102 188.737 278.88 188.46 278.728 188.122C278.587 187.774 278.517 187.382 278.517 186.947C278.517 186.805 278.527 186.664 278.549 186.522C278.56 186.381 278.576 186.234 278.598 186.082L279.801 186.163C279.779 186.294 279.763 186.408 279.752 186.506C279.741 186.604 279.736 186.697 279.736 186.784C279.736 187.023 279.757 187.235 279.801 187.42C279.855 187.605 279.936 187.758 280.044 187.878C280.196 188.052 280.413 188.182 280.695 188.269C280.987 188.346 281.399 188.384 281.93 188.384H282.856C283.431 188.384 283.886 188.427 284.222 188.514C284.558 188.601 284.845 188.759 285.083 188.988C285.267 189.162 285.408 189.401 285.506 189.706C285.603 190 285.657 190.37 285.668 190.816H284.498ZM282.613 192.808C283.469 192.808 284.157 192.955 284.677 193.249C285.208 193.532 285.598 193.897 285.847 194.343C286.096 194.778 286.221 195.219 286.221 195.665C286.221 196.558 285.907 197.265 285.278 197.788C284.66 198.31 283.739 198.604 282.515 198.669L282.678 198.49C283.165 198.631 283.68 198.833 284.222 199.094C284.763 199.355 285.311 199.66 285.863 200.008C286.416 200.346 286.947 200.721 287.456 201.135L286.708 202C286.037 201.499 285.419 201.069 284.856 200.71C284.303 200.34 283.756 200.019 283.214 199.747C282.672 199.475 282.098 199.235 281.491 199.029C280.884 198.822 280.196 198.631 279.427 198.457L279.671 197.331C280.05 197.439 280.413 197.521 280.76 197.576C281.117 197.619 281.545 197.641 282.044 197.641C282.813 197.641 283.404 197.548 283.815 197.363C284.238 197.178 284.53 196.939 284.693 196.645C284.856 196.351 284.937 196.052 284.937 195.747C284.937 195.17 284.725 194.729 284.303 194.424C283.88 194.109 283.344 193.951 282.694 193.951C282.304 193.951 281.989 193.989 281.751 194.065C281.513 194.141 281.339 194.256 281.231 194.408C281.133 194.55 281.085 194.724 281.085 194.931C281.085 195.018 281.095 195.11 281.117 195.208C281.139 195.295 281.16 195.377 281.182 195.453L279.996 195.698C279.941 195.535 279.898 195.366 279.866 195.192C279.833 195.007 279.817 194.844 279.817 194.702C279.817 194.299 279.936 193.956 280.174 193.673C280.413 193.39 280.738 193.178 281.15 193.037C281.572 192.884 282.06 192.808 282.613 192.808ZM281.524 193.38C281.469 193.031 281.307 192.727 281.036 192.465C280.765 192.193 280.375 192.003 279.866 191.894L280.256 191.159L281.003 191.355C281.61 191.595 282.049 191.867 282.32 192.171C282.602 192.476 282.764 192.863 282.808 193.331L281.524 193.38ZM287.456 190.816V191.976H278.517V190.816H287.456Z" fill="#9198A1"/>
<path d="M301 190.816V191.976H294.417V197.624C294.417 198.103 294.444 198.441 294.498 198.637C294.553 198.833 294.618 198.974 294.694 199.061C294.889 199.29 295.187 199.404 295.587 199.404C296.01 199.404 296.411 199.301 296.79 199.094C297.17 198.887 297.5 198.631 297.782 198.327C298.096 197.989 298.334 197.63 298.497 197.249C298.67 196.868 298.757 196.482 298.757 196.09C298.757 195.741 298.67 195.48 298.497 195.306C298.324 195.121 298.036 195.029 297.635 195.029C297.505 195.029 297.365 195.039 297.213 195.061C297.061 195.083 296.915 195.11 296.774 195.143L296.595 193.984C296.801 193.929 297.012 193.886 297.229 193.853C297.457 193.82 297.695 193.804 297.944 193.804C298.345 193.804 298.703 193.88 299.017 194.033C299.331 194.185 299.575 194.424 299.748 194.751C299.933 195.078 300.025 195.502 300.025 196.024C300.025 196.667 299.868 197.293 299.553 197.902C299.239 198.501 298.844 199.007 298.367 199.42C297.966 199.769 297.527 200.052 297.05 200.269C296.584 200.476 296.07 200.58 295.506 200.58C295.105 200.58 294.759 200.52 294.466 200.4C294.184 200.28 293.951 200.128 293.767 199.943C293.594 199.736 293.447 199.486 293.328 199.192C293.22 198.898 293.166 198.452 293.166 197.853V191.976H291.459V190.816H301ZM298.042 190.816C298.031 190.37 297.906 190.06 297.668 189.886C297.44 189.712 297.088 189.624 296.611 189.624H295.214C294.509 189.624 293.962 189.576 293.572 189.478C293.193 189.38 292.868 189.227 292.597 189.02C292.304 188.803 292.082 188.525 291.93 188.188C291.79 187.839 291.719 187.448 291.719 187.012C291.719 186.871 291.724 186.729 291.735 186.588C291.757 186.446 291.779 186.294 291.8 186.131L293.003 186.212C292.981 186.332 292.965 186.446 292.954 186.555C292.944 186.653 292.938 186.756 292.938 186.865C292.938 187.105 292.96 187.317 293.003 187.502C293.057 187.687 293.139 187.839 293.247 187.959C293.399 188.133 293.615 188.269 293.897 188.367C294.19 188.454 294.601 188.498 295.132 188.498H295.587C295.772 188.498 295.988 188.509 296.238 188.531C296.487 188.552 296.801 188.601 297.18 188.678C297.56 188.743 298.031 188.846 298.594 188.988C298.779 189.162 298.925 189.401 299.033 189.706C299.142 190 299.201 190.37 299.212 190.816H298.042ZM291.784 190.816V191.976H290.077V200.971H288.826V191.976H287.136V190.816H288.631C288.457 190.61 288.279 190.392 288.094 190.163C287.921 189.935 287.764 189.706 287.623 189.478C287.992 188.835 288.387 188.253 288.81 187.731C289.232 187.197 289.731 186.778 290.305 186.473C290.879 186.158 291.573 186 292.385 186C293.155 186 293.865 186.12 294.515 186.359C295.176 186.599 295.831 186.941 296.481 187.388C297.142 187.834 297.847 188.367 298.594 188.988L297.944 189.739C297.381 189.293 296.861 188.912 296.384 188.596C295.918 188.269 295.479 188.003 295.067 187.796C294.656 187.578 294.249 187.42 293.848 187.322C293.447 187.214 293.025 187.159 292.581 187.159C291.985 187.159 291.47 187.268 291.036 187.486C290.603 187.693 290.224 187.986 289.899 188.367C289.584 188.737 289.292 189.167 289.021 189.657C289.108 189.82 289.227 190 289.379 190.196C289.53 190.392 289.704 190.599 289.899 190.816H291.784Z" fill="#9198A1"/>
</svg>
